<?xml version="1.0" standalone="no"?>
<!DOCTYPE svg PUBLIC "-//W3C//DTD SVG 1.1//EN" "http://www.w3.org/Graphics/SVG/1.1/DTD/svg11.dtd" >
<svg xmlns="http://www.w3.org/2000/svg">
<metadata>
This is a custom SVG webfont generated by Font Squirrel.
Copyright   :  1990 1991 1992 1994 1997 1998 2000 2002 2004 Adobe Systems Incorporated All rights reserved Protected by US Patents D337604 D338907 D508943
Designer    : Robert Slimbach
Foundry URL : httpwwwadobecomtype
</metadata>
<defs>
<font id="webfontTSzmlB8O" horiz-adv-x="976" >
<font-face units-per-em="2048" ascent="1489" descent="-559" />
<missing-glyph horiz-adv-x="468" />
<glyph unicode=" "  horiz-adv-x="468" />
<glyph unicode="&#x09;" horiz-adv-x="468" />
<glyph unicode="&#xa0;" horiz-adv-x="468" />
<glyph unicode="!" horiz-adv-x="530" d="M98 88q0 59 35 97t90 38q45 0 75 -32.5t30 -86.5q0 -59 -37 -94t-86 -35h-2q-45 0 -75 32t-30 81zM240 401q8 84 35.5 340t39.5 396q12 133 19 163q10 59 119 60h2q55 0 78.5 -14.5t17.5 -47.5q-10 -47 -43 -161l-205 -736q-8 -10 -33.5 -10t-29.5 10z" />
<glyph unicode="&#x22;" horiz-adv-x="706" d="M262 977q59 324 64 432l153 45l17 -14q-20 -70 -75.5 -213.5t-96.5 -222.5zM580 977q63 352 63 432l152 45l18 -14q-20 -70 -75.5 -212.5t-96.5 -223.5z" />
<glyph unicode="#" d="M74 408l26 120h205l84 283h-188l24 121h199l94 321h84l-96 -321h225l94 321h82l-94 -321h178l-24 -121h-187l-84 -283h168l-22 -120h-180l-109 -365h-80l105 365h-226l-106 -365h-82l104 365h-194zM389 528h223l84 283h-223z" />
<glyph unicode="$" d="M80 410l57 6q10 -78 36 -144.5t86 -127t147 -70.5l98 518l-45 29q-225 137 -226 311q0 154 117 245t285 93l31 157h73l-30 -159q100 -2 241 -78q-4 -53 -12 -262l-59 -6q-8 242 -185 280l-90 -469l45 -31q113 -72 172.5 -146.5t59.5 -182.5q0 -162 -122 -260.5 t-296 -104.5l-33 -174h-72l33 174q-109 6 -192.5 45t-114.5 76q0 142 -4 281zM383 987q0 -123 156 -219l84 438q-119 -2 -179.5 -66.5t-60.5 -152.5zM477 72q115 8 177.5 77.5t62.5 167.5q0 78 -34 130.5t-116 109.5z" />
<glyph unicode="%" horiz-adv-x="1538" d="M188 840q0 168 103.5 314t259.5 146q113 0 169 -80.5t56 -201.5q0 -166 -103.5 -312.5t-258.5 -146.5q-111 0 -168.5 81t-57.5 200zM285 -6l1009 1345l58 -47l-1010 -1347zM328 803q0 -182 96 -182q74 0 126 93t70.5 192.5t18.5 172.5q0 160 -98 160q-70 0 -121 -85 t-71.5 -180t-20.5 -171zM860 254q0 104 44 209.5t129 179.5t190 74q113 0 169 -81t56 -202q0 -166 -103.5 -312.5t-259.5 -146.5q-111 0 -168 80t-57 199zM999 217q0 -182 97 -182q74 0 126 93t70.5 192.5t18.5 173.5q0 162 -99 161q-53 0 -96 -49t-67.5 -121.5t-37 -143.5 t-12.5 -124z" />
<glyph unicode="&#x26;" horiz-adv-x="1560" d="M133 438q0 236 168 406q55 57 123 98t119 41q53 0 86 -41t33 -102q0 -23 -7 -54h4q260 242 261 426q0 25 -13 74q-4 29 20.5 56.5t59.5 27.5q37 0 59.5 -31.5t22.5 -81.5q0 -172 -240 -405q-252 -246 -544 -420q25 -150 123 -232.5t235 -82.5q178 0 312.5 145.5 t191.5 388.5q-111 70 -164 70q-41 0 -65.5 -26.5t-24.5 -65.5q0 -57 20 -94q14 -25 15 -35q-2 -16 -26.5 -28.5t-47.5 -12.5q-37 0 -61.5 31.5t-24.5 74.5q0 90 123 185q41 31 93 52t79 21q106 0 321 -172q37 -31 58 -30q37 0 39 208h63q6 -51 6 -120q0 -63 -9 -109.5 t-21.5 -71t-29.5 -39t-28.5 -17.5t-23.5 -3q-37 0 -99 45q-10 8 -59 44t-72 50q-68 -256 -194 -407q-193 -225 -453 -226q-184 0 -306 124t-122 339zM276 539q0 -23 3 -35q53 31 138 91t118 95q10 37 10 72q2 49 -20.5 83t-59.5 34q-66 0 -127.5 -98.5t-61.5 -241.5z" />
<glyph unicode="'" horiz-adv-x="393" d="M262 977q59 334 64 432l151 45l19 -14q-18 -66 -74.5 -209.5t-97.5 -226.5z" />
<glyph unicode="(" horiz-adv-x="692" d="M158 350q0 373 165.5 671t440.5 437l33 -49q-225 -147 -362.5 -445t-137.5 -638q0 -414 176 -631l-47 -41q-135 109 -201.5 299t-66.5 397z" />
<glyph unicode=")" horiz-adv-x="681" d="M-37 -299q217 145 345 415.5t145 577.5q23 207 -21.5 409t-144.5 314l47 41q145 -115 213.5 -332t46.5 -460q-16 -328 -175 -602.5t-423 -409.5z" />
<glyph unicode="*" horiz-adv-x="800" d="M209 838l225 174l-203 223l37 43l234 -184l135 266l53 -17l-78 -280l273 -19l-2 -55l-275 -31l64 -284l-49 -21l-125 277l-258 -142z" />
<glyph unicode="+" horiz-adv-x="1220" d="M150 471v102h430v424h116v-424h430v-102h-430v-471h-116v471h-430z" />
<glyph unicode="," horiz-adv-x="481" d="M-6 -172q174 74 176 182q2 92 -94 127q-16 4 -17 27q2 41 32 69.5t69 28.5q63 0 107 -61.5t38 -141.5q-10 -201 -291 -290z" />
<glyph unicode="-" horiz-adv-x="684" d="M102 406l37 112h471l-37 -112h-471z" />
<glyph unicode="." horiz-adv-x="481" d="M80 82q0 55 33.5 91t85.5 36q43 0 70.5 -31t27.5 -78q0 -59 -35 -92t-84 -33q-43 0 -70.5 30t-27.5 77z" />
<glyph unicode="/" horiz-adv-x="659" d="M-37 -92l660 1452h108l-659 -1452h-109z" />
<glyph unicode="0" d="M102 453q2 100 23.5 211.5t69 225.5t110 205t154.5 148t196 57q166 0 241 -134t69 -328q-2 -129 -37 -273.5t-98.5 -278.5t-171 -222.5t-240.5 -88.5q-166 0 -243 135.5t-73 342.5zM274 399q-8 -356 158 -356q88 0 160 95t112.5 236.5t64.5 279t26 245.5q12 334 -154 334 q-88 0 -160.5 -88t-114.5 -220t-66 -270.5t-26 -255.5z" />
<glyph unicode="1" d="M160 0l12 53q141 12 173 39t56 156l150 760q18 92 -0.5 113.5t-110.5 21.5h-67l10 51q213 33 383 106l-205 -1052q-25 -127 1 -156t175 -39l-12 -53h-565z" />
<glyph unicode="2" d="M6 0l2 43q274 231 410 363q176 170 265 295.5t89 248.5q0 98 -53 158.5t-162 60.5q-61 0 -119.5 -33.5t-91.5 -67.5t-74 -85l-43 43l131 164q121 111 268.5 110.5t232.5 -86.5t85 -233q0 -143 -90 -258t-297 -291l-326 -285h367q88 0 129 21.5t100 107.5l50 -24 q-25 -49 -65 -138t-50 -114h-758z" />
<glyph unicode="3" d="M59 131q6 39 56 70q23 16 41 -2q113 -121 247 -121q131 0 215 84t84 250q0 119 -67.5 181t-165.5 62q-43 0 -123 -18l-12 53q391 111 391 322q0 80 -45 126t-127 46q-53 0 -102.5 -27t-78 -56.5t-65.5 -74.5l-41 43l99 123q109 109 260 108q125 0 196.5 -72.5 t71.5 -174.5q0 -111 -96 -189q-57 -45 -154 -106v-4q111 -31 175.5 -107t64.5 -186q0 -203 -226 -361q-86 -59 -187 -92t-175 -33q-55 0 -110.5 20.5t-86.5 51.5q-45 43 -39 84z" />
<glyph unicode="4" d="M45 367l12 55q453 555 764 866h88l-159 -833h194l-18 -88h-195l-24 -136q-20 -113 1 -140.5t140 -37.5l-12 -53h-519l13 53q133 10 164.5 36t54.5 142l26 136h-530zM186 455h404l135 637h-6q-265 -289 -533 -637z" />
<glyph unicode="5" d="M55 133q4 43 56 72q23 14 43 -6q111 -121 260 -121q131 0 209.5 86t78.5 248q0 129 -69.5 205.5t-214.5 76.5q-80 0 -187 -32l-14 16l166 598h580l-62 -148h-471l-115 -374q164 49 213 49q164 0 257.5 -97.5t93.5 -230.5q0 -117 -68 -220t-190 -179q-154 -100 -312 -101 q-70 0 -131 25t-92 57q-39 41 -31 76z" />
<glyph unicode="6" d="M96 401q0 303 183.5 529.5t478.5 320.5q117 37 260 60l12 -62q-125 -25 -227 -67q-344 -141 -471 -461l2 -4l133 63q70 37 125 37q147 0 235 -98t88 -254q0 -205 -137 -347.5t-319 -142.5q-166 0 -264.5 119t-98.5 307zM270 399q0 -150 55.5 -253t163.5 -103 q111 0 181.5 111.5t70.5 277.5q0 115 -54 196t-183 81q-86 0 -197 -68q-37 -99 -37 -242z" />
<glyph unicode="7" d="M115 0q475 590 798 1128h-430q-94 0 -131 -26.5t-92 -130.5l-55 16q37 92 88 289h766l16 -25l-784 -1255l-162 -21z" />
<glyph unicode="8" d="M84 293q0 121 111 217q41 35 227 156q-168 131 -168 288q0 141 114.5 243.5t274.5 102.5q121 0 210 -76.5t89 -203.5q0 -119 -90 -195q-74 -59 -188 -133q115 -86 171 -158.5t56 -173.5q0 -158 -132 -271.5t-317 -113.5q-147 0 -252.5 85.5t-105.5 232.5zM252 293 q0 -109 59.5 -179.5t161.5 -70.5q106 0 176 73.5t70 194.5q0 94 -58.5 160t-183.5 154q-225 -135 -225 -332zM408 1010q0 -66 31.5 -120t66.5 -84t88 -67q10 -6 16 -10q178 117 178 293q0 94 -49 152.5t-129 58.5q-88 0 -145 -65.5t-57 -157.5z" />
<glyph unicode="9" d="M86 29q213 39 397.5 186t270.5 377l-150 -72q-59 -29 -117 -28q-127 0 -215 96t-88 246q0 188 133.5 327t311.5 139q174 0 262 -125.5t88 -297.5q0 -301 -176 -526.5t-441 -321.5q-166 -59 -268 -60zM356 881q0 -125 59.5 -200t172.5 -75q45 0 98 17.5t84 42.5 q37 102 37 241q0 47 -6 92t-24.5 103.5t-62.5 94.5t-112 36q-104 0 -175 -103.5t-71 -248.5z" />
<glyph unicode=":" horiz-adv-x="481" d="M80 82q0 55 33.5 91t85.5 36q43 0 70.5 -31t27.5 -78q0 -57 -35 -91t-84 -34q-45 0 -71.5 30t-26.5 77zM172 717q0 55 33 91t84 36q43 0 71.5 -31t28.5 -78q0 -55 -35 -90t-84 -35q-43 0 -70.5 31t-27.5 76z" />
<glyph unicode=";" horiz-adv-x="481" d="M-8 -174q82 33 129 81t47 101q0 98 -92 127q-20 4 -17 29q2 41 32 68.5t69 27.5q63 0 104 -58.5t41 -129.5q0 -117 -84 -192t-205 -113zM168 717q0 55 32.5 91t84.5 36q43 0 71.5 -31t28.5 -78q0 -55 -36 -90t-85 -35q-41 0 -68.5 31t-27.5 76z" />
<glyph unicode="&#x3c;" horiz-adv-x="1222" d="M133 471v96l926 471v-112l-805 -406v-4l805 -403v-113z" />
<glyph unicode="=" horiz-adv-x="1220" d="M135 283v102h995v-102h-995zM135 657v103h995v-103h-995z" />
<glyph unicode="&#x3e;" horiz-adv-x="1222" d="M207 0v113l805 403v4l-805 406v112l923 -471v-96z" />
<glyph unicode="?" horiz-adv-x="724" d="M166 88q0 59 35 97t90 38q45 0 74.5 -32.5t29.5 -84.5q0 -59 -36.5 -95t-88.5 -36q-45 0 -74.5 32t-29.5 81zM195 627q0 127 215 262q168 100 215 155q37 43 37 84q0 47 -31 76t-84 29q-57 0 -110.5 -25.5t-85.5 -52.5t-40 -27q-23 0 -46 26t-23 58q4 41 57 78 q94 70 186 70h2q109 0 190 -90t81 -209q0 -135 -135 -223l-54 -35q-137 -90 -183 -131t-46 -94q0 -76 72 -144l-41 -43q-68 37 -122 101.5t-54 134.5z" />
<glyph unicode="@" horiz-adv-x="1511" d="M111 408q0 143 44 268t120.5 217t177 158.5t214 99.5t230.5 33q264 0 414.5 -150.5t150.5 -376.5q0 -211 -145.5 -361.5t-353.5 -150.5q-70 0 -87.5 42t3.5 108l26 111l-4 2q-55 -82 -167.5 -172.5t-174.5 -90.5q-39 0 -68.5 47.5t-29.5 124.5q0 98 43 206t129 188 q143 139 325 145q6 0 107 -16q27 -8 63 -9q-74 -295 -110 -479q-14 -70 -7 -96.5t40 -24.5q115 2 215 115t100 313q0 207 -137 327t-348 120q-283 0 -460 -190.5t-177 -487.5q0 -100 29.5 -192.5t90 -172t170 -128t254.5 -48.5q180 0 320 72l22 -57q-195 -106 -409 -107 q-254 0 -432 165t-178 448zM612 356q0 -84 41 -84q37 0 113 64.5t162 195.5q25 72 57 222q-39 25 -111 24q-76 0 -137 -65q-47 -51 -86 -154t-39 -203z" />
<glyph unicode="A" horiz-adv-x="1359" d="M-37 0l14 55q98 12 135.5 42t108.5 155l615 1091l63 17l57 -365q53 -342 131 -762q18 -111 47 -139t138 -39l-15 -55h-483l14 55q102 10 125 33q15 15 16 53q0 17 -3 39q-4 37 -52 303h-428q-82 -154 -141 -278q-30 -65 -30 -96q0 -13 6 -20q18 -24 135 -34l-13 -55h-440 zM492 569h370l-82 529h-4z" />
<glyph unicode="B" horiz-adv-x="1185" d="M14 0l15 55q119 10 150.5 39t53.5 152l168 856q12 57 12 91q0 33 -11 45q-22 26 -146 36l12 55h480q385 0 385 -282q0 -131 -92.5 -211t-239.5 -111v-4q131 -27 215 -106.5t84 -213.5q0 -109 -64.5 -194.5t-171.5 -136.5q-147 -70 -411 -70h-439zM401 250q-7 -39 -7 -68 q0 -53 24 -77q37 -36 143 -35q150 0 246 94t96 248q0 272 -321 272h-101zM496 752h104q166 0 257 78.5t91 213.5q0 119 -69.5 169.5t-171.5 50.5q-68 0 -95 -19q-29 -18 -41 -90z" />
<glyph unicode="C" horiz-adv-x="1300" d="M135 559q0 356 244 578.5t604 222.5q186 0 352 -66q-2 -33 -7 -144.5t-9 -168.5l-62 -6q-8 176 -84.5 245.5t-236.5 69.5q-262 0 -432 -216t-170 -509q0 -229 109.5 -377.5t308.5 -148.5q141 0 240.5 81t199.5 236l53 -28q-76 -182 -162 -310q-217 -49 -352 -49 q-264 0 -430 155.5t-166 434.5z" />
<glyph unicode="D" horiz-adv-x="1449" d="M18 0l15 55q117 12 147.5 41t52.5 150l162 835q10 60 10.5 97.5t-10.5 51.5q-20 28 -143 44l12 55h512q307 0 479 -136t172 -419q0 -193 -89 -355.5t-248 -264.5q-240 -154 -629 -154h-443zM397 153q4 -36 33 -51q49 -29 148 -28q203 0 353 98t225 258t75 354 q0 231 -126 354.5t-353 123.5q-100 0 -134 -23q-29 -14 -45 -100l-165 -875q-11 -59 -12 -94q0 -9 1 -17z" />
<glyph unicode="E" horiz-adv-x="1144" d="M4 0l12 55q127 10 160 39t55 152l164 839q12 63 12 101q0 36 -11 50q-22 28 -148 38l16 55h889q-6 -37 -39 -313l-59 -4q0 131 -27 180q-16 39 -54 53.5t-145 14.5h-159q-51 0 -64.5 -12.5t-23.5 -71.5l-88 -443h198q125 0 161 23.5t73 126.5h59l-78 -389h-59q1 16 0 30 q0 86 -21 106q-25 24 -153 23h-195l-67 -358q-14 -72 -14 -119q0 -59 22 -78q35 -29 207 -28q115 0 171 14t99 55q55 53 139 197l58 -21q-115 -283 -131 -315h-959z" />
<glyph unicode="F" horiz-adv-x="1079" d="M23 0l12 55q117 10 147.5 41t55.5 160l155 815q14 77 14 119q0 32 -8 44q-18 28 -143 40l14 55h883q-10 -100 -37 -313l-59 -4q-4 129 -23 176q-12 41 -52 56.5t-146 15.5h-166q-51 0 -64.5 -13.5t-23.5 -66.5l-90 -469h215q129 0 162.5 22.5t76.5 124.5h58l-78 -393h-58 q0 115 -25.5 140.5t-154.5 25.5h-213l-69 -375q-12 -62 -12 -101q0 -43 14 -59q27 -31 167 -41l-14 -55h-538z" />
<glyph unicode="G" horiz-adv-x="1394" d="M137 555q0 352 243 578.5t624 226.5q170 0 360 -64q-14 -143 -25 -319l-59 -6q2 168 -80 243.5t-248 75.5q-274 0 -445 -212t-171 -507q0 -238 116.5 -385t327.5 -147q207 0 234 145l41 193q11 53 10 86q0 38 -13 51q-26 25 -180 39l13 55h499l-12 -53 q-86 -14 -107.5 -38.5t-43.5 -139.5l-33 -172q-13 -67 -13 -119q0 -23 3 -43l-97 -24q-72 -17 -111.5 -25t-104 -16.5t-122.5 -8.5q-272 0 -439 156t-167 430z" />
<glyph unicode="H" horiz-adv-x="1519" d="M27 0l12 55q115 10 143.5 39t50.5 154l160 831q13 68 13 108q0 35 -10 48q-22 29 -148 39l14 55h506l-12 -55q-111 -10 -141.5 -41t-55.5 -154l-61 -331h667l64 331q13 69 13 109q0 33 -9 46q-20 28 -141 40l12 55h508l-15 -55q-117 -10 -146.5 -39t-53.5 -156l-158 -831 q-13 -64 -13 -103q0 -36 11 -50q23 -30 145 -40l-12 -55h-520l14 55q121 10 153 40t54 153l78 414h-670l-78 -414q-12 -65 -11 -104q0 -37 10 -51q22 -28 147 -38l-12 -55h-508z" />
<glyph unicode="I" horiz-adv-x="686" d="M14 0l15 55q119 8 149.5 37t52.5 146l168 860q10 52 10 86q0 39 -13 53q-24 27 -152 37l12 55h522l-12 -55q-121 -10 -149.5 -37t-51.5 -139l-164 -860q-11 -59 -11 -96t11 -50q23 -27 150 -37l-12 -55h-525z" />
<glyph unicode="J" horiz-adv-x="657" d="M-53 -236q162 47 225 220q45 113 82 323l145 780q11 60 11.5 97.5t-11.5 50.5q-23 27 -147 39l12 55h504l-12 -55q-113 -14 -140.5 -40t-50.5 -147l-151 -821q-37 -199 -104.5 -316.5t-184.5 -185.5q-86 -51 -158 -61z" />
<glyph unicode="K" horiz-adv-x="1337" d="M25 0l14 55q113 10 142.5 41t56.5 166l155 813q13 70 14 111q0 34 -10 47q-20 29 -139 41l12 55h496l-12 -55q-117 -12 -144.5 -41t-52.5 -158l-72 -362q70 23 154 92q205 168 414 375q42 40 42 58q0 19 -57 28l-59 8l12 55h473l-14 -53q-113 -16 -166 -40t-149.5 -99.5 t-448.5 -380.5q182 -305 373 -563q57 -78 98 -102.5t127 -35.5l-14 -55h-295q-330 506 -383 594q-31 51 -57.5 63.5t-61.5 -4.5l-70 -391q-15 -78 -15 -121q0 -33 9 -46q20 -30 142 -40l-11 -55h-503z" />
<glyph unicode="L" horiz-adv-x="1089" d="M14 0l13 53q119 10 149.5 39t52.5 146l168 856q12 61 12 97q0 35 -11 47q-22 26 -146 36l12 55h512l-12 -55q-123 -10 -150.5 -37t-50.5 -143l-162 -850q-8 -38 -7 -68q0 -58 30 -80q35 -27 184 -26q176 0 240 63q72 68 143 207l58 -21q-63 -174 -131 -319h-904z" />
<glyph unicode="M" horiz-adv-x="1794" d="M-8 0l14 55q88 8 128 34t65 91q45 117 147 469l115 389q20 68 25.5 103t5.5 62.5t-26 38.5t-55.5 18.5t-95.5 13.5l15 55h340l223 -1026l639 1026h332l-15 -55q-133 -10 -160.5 -37t-48.5 -156q-45 -289 -110 -805q-10 -69 -10 -112q0 -50 13 -67q24 -32 148 -42l-14 -55 h-518l14 55q119 10 148.5 42t50.5 179l77 494l58 369h-4l-678 -1131h-47q-102 571 -209 1108h-4l-147 -538q-88 -326 -97 -396q-3 -18 -2 -33q0 -41 20 -59q28 -25 138 -35l-12 -55h-463z" />
<glyph unicode="N" horiz-adv-x="1443" d="M4 0l14 55q82 4 121 30t60 89q33 109 84 354l106 506q13 70 13 102q0 35 -25 76q-18 33 -53 45.5t-119 16.5l12 55h293l604 -1042h8l95 510q47 246 55 352v14q0 58 -30 79q-34 24 -148 32l14 55h461l-13 -55q-88 -4 -122.5 -30.5t-55.5 -98.5q-33 -102 -78 -348 l-155 -813h-62l-606 1085h-6l-106 -545q-53 -267 -54 -352q0 -63 32 -85q34 -24 142 -32l-12 -55h-469z" />
<glyph unicode="O" horiz-adv-x="1449" d="M135 551q0 328 215 568.5t531 240.5q244 0 394 -163t150 -423q0 -332 -213 -568.5t-534 -236.5q-242 0 -392.5 161t-150.5 421zM330 532q0 -219 93 -356t273 -137q162 0 288 120t186.5 289.5t60.5 346.5q0 221 -88 358t-279 137q-154 0 -279.5 -115.5t-190 -288 t-64.5 -354.5z" />
<glyph unicode="P" horiz-adv-x="1134" d="M12 0l15 55q119 12 149.5 41t56.5 158l166 831q12 62 12 100q0 34 -10 48q-20 29 -145 41l14 55h465q432 0 432 -346q0 -201 -149.5 -316.5t-339.5 -127.5q-27 -2 -78 -2l-137 43l-64 -326q-12 -62 -12 -101q0 -40 13 -56q26 -30 167 -42l-10 -55h-545zM477 645 q70 -27 150 -27q59 0 117.5 20.5t113.5 61.5t90 117t35 174q0 129 -70.5 202t-203.5 73q-49 0 -86 -17q-35 -14 -52 -98z" />
<glyph unicode="Q" horiz-adv-x="1452" d="M135 547q0 330 215 571.5t531 241.5q244 0 394 -164t150 -424q0 -270 -153.5 -486t-394.5 -286l26 -18q213 -156 455 -267l-17 -45q-129 2 -241 35q-139 37 -438 248l-29 20q-225 16 -361.5 173t-136.5 401zM330 528q0 -188 74.5 -319t211.5 -162l144 35q16 -10 49 -35 q127 35 225.5 157t147.5 277.5t49 311.5q0 221 -89 359t-278 138q-152 0 -277.5 -115.5t-191 -289t-65.5 -357.5z" />
<glyph unicode="R" horiz-adv-x="1226" d="M20 0l13 55q119 12 148.5 42t56.5 163l157 823q13 69 14 109q0 33 -10 45q-20 27 -143 37l14 55h445q199 0 289 -63q123 -80 122 -252q0 -145 -90 -244.5t-227 -146.5q57 -147 123 -275q74 -143 127 -215q53 -70 139 -98l-18 -51h-21q-141 8 -210.5 51t-127.5 149 q-66 121 -139 303q-25 57 -51.5 76t-81.5 19h-86l-60 -322q-13 -72 -13 -114q0 -37 10 -51q22 -30 147 -40l-12 -55h-515zM475 647h96q141 0 220 51q70 47 111.5 126t41.5 173q0 131 -63.5 200t-178.5 69q-66 0 -92 -21q-25 -16 -39 -90z" />
<glyph unicode="S" horiz-adv-x="958" d="M78 399l55 7q12 -90 44 -167t106.5 -139.5t179.5 -62.5q111 0 180.5 71.5t69.5 192.5q0 82 -47.5 147.5t-145.5 143.5l-59 45q-63 51 -103.5 89t-82.5 113.5t-42 153.5q0 160 116 263.5t300 103.5q102 0 195 -33q82 -31 88 -33q-4 -49 -4 -157v-131l-60 -7 q-31 293 -245 293q-104 0 -167 -69.5t-63 -167.5q0 -82 47 -142.5t144 -132.5l61 -47q117 -86 177.5 -174t60.5 -201q0 -172 -131 -280.5t-316 -108.5q-113 0 -213 40t-139 85q0 23 -2 125t-4 180z" />
<glyph unicode="T" horiz-adv-x="1234" d="M182 1016q63 203 99 364h43q14 -33 33.5 -42t64.5 -9h770q39 0 59.5 10.5t48.5 40.5h46q-18 -106 -48 -360l-63 -4q1 16 0 31q0 99 -23 151q-16 37 -59 49.5t-160 12.5h-125l-190 -1014q-10 -56 -10 -93q0 -43 14 -59q27 -29 166 -39l-12 -55h-557l12 55q129 8 161.5 38 t55.5 153l194 1014h-106q-127 0 -174 -12.5t-76 -47.5q-43 -51 -102 -186z" />
<glyph unicode="U" horiz-adv-x="1447" d="M236 1274l14 55h506l-13 -55q-119 -10 -147.5 -36t-50.5 -146l-94 -502q-20 -101 -20 -182q0 -130 51 -207q83 -125 249 -125q184 0 295 138t170 437l29 144q49 260 53 368v13q0 51 -31 70q-35 22 -147 28l12 55h471l-12 -55q-96 -4 -130 -27.5t-50 -83.5 q-33 -115 -82 -368l-33 -158q-74 -379 -242 -535q-145 -133 -348 -133q-197 0 -315 111q-111 106 -111 311q0 84 19 184l98 517q12 62 12 99q0 34 -10 46q-20 27 -143 37z" />
<glyph unicode="V" horiz-adv-x="1382" d="M203 1276l14 53h469l-14 -53l-56 -8q-59 -8 -72 -27q-8 -11 -8 -37q0 -16 3 -37q8 -63 33 -208l67 -362q41 -218 63 -351h5q399 715 477 880q31 66 31 95q0 8 -3 13q-10 24 -79 32l-62 10l14 53h449l-14 -53q-100 -12 -140.5 -41t-115.5 -152q-152 -238 -623 -1106h-61 q-100 623 -199 1119q-23 115 -51.5 142.5t-126.5 37.5z" />
<glyph unicode="W" horiz-adv-x="1943" d="M223 1274l13 55h462l-14 -55l-49 -6q-63 -10 -78 -32q-9 -14 -9 -52q0 -22 3 -51l88 -857h6l483 1029h60l170 -1031h4q317 692 381 859q20 54 20 81q0 12 -4 19q-12 23 -90 33l-53 8l12 55h438l-12 -55q-102 -14 -135 -41t-96 -150q-100 -190 -523 -1106h-63l-166 1018 h-6l-490 -1018h-61l-125 1100q-14 131 -38 159t-128 38z" />
<glyph unicode="X" horiz-adv-x="1314" d="M-49 0l14 55q98 10 142.5 32t119.5 101q123 133 400 482l-197 444q-45 100 -79 125t-138 35l12 55h475l-12 -55l-53 -8q-51 -10 -61.5 -22.5t4.5 -57.5q23 -59 167 -379q147 180 283 367q27 39 27 57q0 4 -1 7q-7 17 -59 28l-59 8l12 55h445l-13 -55 q-111 -12 -150.5 -32.5t-119.5 -106.5l-332 -396l228 -503q51 -117 86.5 -143.5t154.5 -37.5l-12 -55h-516l12 55l64 8q55 8 66 27q4 7 4 18q0 20 -13 54l-190 438q-244 -309 -330 -438q-26 -38 -26 -59q0 -5 1 -10q8 -22 72 -32l49 -6l-12 -55h-465z" />
<glyph unicode="Y" horiz-adv-x="1251" d="M197 1274l14 55h473l-12 -55l-72 -8q-51 -8 -62.5 -24.5t5.5 -61.5q113 -315 188 -496q268 383 328 483q24 41 23 61q0 6 -2 10q-9 17 -68 28l-64 8l15 55h442l-16 -55q-98 -10 -139.5 -35t-116.5 -119q-137 -172 -338 -463q-35 -47 -50 -114l-57 -289q-14 -66 -13 -106 q0 -38 12 -52q26 -29 165 -41l-14 -55h-545l14 55q125 10 157 39t58 160l53 276q5 21 6 44q0 38 -16 77l-180 479q-35 90 -62.5 112t-125.5 32z" />
<glyph unicode="Z" horiz-adv-x="1204" d="M2 31l1016 1229h-324q-145 0 -197.5 -15.5t-84.5 -56.5q-49 -61 -103 -195l-59 4q51 188 84 383h43q18 -33 37.5 -42t64.5 -9h772l13 -26l-1006 -1221q123 -12 317 -12q164 0 248 12t129 51q66 55 152 227l57 -24q-86 -256 -123 -336h-1022z" />
<glyph unicode="[" horiz-adv-x="692" d="M100 -332l340 1774h346l-14 -56q-160 -16 -193.5 -41.5t-58.5 -152.5l-244 -1274q-25 -127 1 -152.5t188 -41.5l-14 -56h-351z" />
<glyph unicode="\" horiz-adv-x="768" d="M164 1360h108l394 -1452h-109z" />
<glyph unicode="]" horiz-adv-x="692" d="M-31 -332l15 56q162 14 194.5 40.5t57.5 153.5l245 1274q23 127 -2.5 152.5t-187.5 41.5l14 56h350l-340 -1774h-346z" />
<glyph unicode="^" horiz-adv-x="1130" d="M158 432l393 844h86l393 -844h-121l-319 711l-320 -711h-112z" />
<glyph unicode="_" horiz-adv-x="1024" d="M0 -154h1024v-102h-1024v102z" />
<glyph unicode="`" horiz-adv-x="819" d="M418 1339l6 19q14 6 70.5 16t78.5 8q12 -59 48 -201l38 -159l-59 -18q-129 245 -182 335z" />
<glyph unicode="a" horiz-adv-x="1003" d="M80 205q0 156 67.5 310.5t178.5 246.5q84 68 187 113t196 45q55 0 127 -17q53 -12 77 -12l5 -8q-70 -270 -142 -666q-7 -39 -7 -61q0 -27 11 -27q37 0 150 109l24 -50q-78 -94 -168 -153.5t-133 -59.5q-47 0 -47 79q0 40 12 102l41 194h-6q-106 -154 -264 -282 q-113 -92 -190 -93q-45 0 -82 58.5t-37 171.5zM250 242q0 -135 55 -136q57 0 192.5 145.5t188.5 256.5q33 104 68 293q-57 29 -136 28q-88 0 -147 -43q-100 -74 -160.5 -229t-60.5 -315z" />
<glyph unicode="b" horiz-adv-x="995" d="M147 319l195 920q7 39 7 61q0 18 -5 24q-10 13 -70 15h-59l4 52q68 6 137.5 23.5t112.5 30.5t55 13q15 0 15 -22q0 -15 -7 -39q-102 -424 -180 -785h4q123 152 245 230t200 78q68 0 106.5 -61.5t38.5 -164.5q0 -170 -90 -343t-225 -263q-168 -113 -309 -113 q-49 0 -95.5 25t-68.5 63q-25 44 -26 120q0 58 15 136zM297 330q-10 -54 -10 -96q0 -67 24 -104q39 -60 111 -60q57 0 108 30q96 57 171 218t75 341q0 145 -69 146q-57 0 -168 -91t-205 -225q-17 -50 -37 -159z" />
<glyph unicode="c" horiz-adv-x="782" d="M90 274q0 131 57.5 267.5t155.5 224.5q66 61 160 107.5t166 46.5q63 0 108 -32q47 -33 48 -77q0 -53 -66 -88q-27 -14 -45 12q-63 88 -156 88q-96 0 -170 -137q-88 -162 -88 -369q0 -106 38 -163.5t105 -57.5q70 0 151 48.5t134 103.5l31 -45q-90 -106 -203 -167 t-207 -61q-100 0 -159.5 78t-59.5 221z" />
<glyph unicode="d" horiz-adv-x="1040" d="M84 221q0 147 63.5 297t174.5 244q72 63 181 110.5t181 47.5q68 0 121 -23l67 336q8 37 8 59q0 19 -6 27q-12 16 -79 16h-66l6 51q76 8 147.5 27t113.5 32t53 13q18 0 18 -27q0 -12 -4 -30q-158 -674 -254 -1206q-5 -25 -5 -40q0 -26 13 -26q45 0 146 100l28 -47 q-78 -92 -165 -149.5t-136 -57.5q-50 0 -50 84q0 43 13 107l37 174l-4 -2q-106 -141 -270 -268q-117 -94 -199 -95q-55 0 -94 64.5t-39 181.5zM254 260q0 -152 63 -151q72 0 205 135t193 241l65 293q-57 53 -166 53q-86 0 -141 -43q-96 -70 -157.5 -229.5t-61.5 -298.5z" />
<glyph unicode="e" horiz-adv-x="819" d="M90 274q0 150 65.5 294.5t182.5 234.5q150 117 283 117q80 0 129 -48.5t49 -115.5q0 -72 -54.5 -134.5t-144.5 -106.5t-171 -71.5t-171 -50.5q-2 -27 -2 -65q0 -231 158 -232q137 0 301 158l33 -47q-215 -231 -431 -232q-90 0 -158.5 67.5t-68.5 231.5zM266 455 q381 104 381 268q0 51 -28.5 81t-73.5 30q-51 0 -86 -23q-150 -92 -193 -356z" />
<glyph unicode="f" horiz-adv-x="555" d="M-291 -438q0 41 58 86q20 18 38 0q51 -51 129 -51q51 0 89 41q68 78 143 514l108 649h-168l-6 24l62 58h129q55 279 174 411q70 76 149.5 120t143.5 44q51 0 88 -28.5t35 -57.5q0 -45 -52 -86q-31 -20 -51 2q-66 72 -129 72q-61 0 -109 -104.5t-91 -372.5h231l-41 -66 l-205 -20q-59 -346 -106 -572q-51 -254 -111.5 -392t-148.5 -230q-121 -129 -230 -129q-45 0 -87 27.5t-42 60.5z" />
<glyph unicode="g" horiz-adv-x="860" d="M-94 -297q6 123 344 295q-80 53 -76 102q0 51 127 125q-180 41 -180 250q0 98 46 189.5t126 152.5q127 102 262 103q109 0 174 -58q152 2 232 47l14 -37q-74 -78 -146 -96q-39 -4 -53 -6q16 -53 17 -113q0 -186 -156 -315q-109 -88 -264 -119q-41 -31 -41 -63 q0 -43 147 -121q145 -76 211 -140.5t66 -131.5q0 -80 -81 -150t-191.5 -106.5t-211.5 -36.5q-150 0 -259 67.5t-107 161.5zM78 -262q0 -76 83 -127t193 -51q113 0 182.5 45t69.5 106q0 76 -149 164q-121 70 -154 86q-225 -108 -225 -223zM279 489q0 -88 36.5 -136t94.5 -48 q88 0 159.5 94.5t71.5 249.5q0 90 -36 144.5t-101 54.5q-90 0 -148 -92q-77 -111 -77 -267z" />
<glyph unicode="h" horiz-adv-x="1046" d="M72 -8q164 731 260 1227q8 46 8 71q0 20 -5 27q-11 16 -73 16l-59 2l8 51q70 6 138.5 25t109.5 33t49 14q15 0 15 -26q0 -17 -7 -46l-182 -849h4q170 227 379 340q80 43 139 43q76 0 76 -113q0 -58 -21 -148l-106 -456q-6 -30 -6 -49q0 -26 12 -27q16 0 59 27.5t84 66.5 l25 -49q-78 -88 -163 -142.5t-132 -54.5q-51 0 -51 82q0 46 16 117l109 473q14 60 14 95q0 52 -31 53q-70 0 -214 -136.5t-218 -271.5q-35 -139 -78 -373q-96 -20 -145 -39z" />
<glyph unicode="i" horiz-adv-x="559" d="M119 723q82 80 175 137.5t134 57.5q37 0 37 -59q0 -39 -16 -103l-140 -563q-7 -29 -7 -46q0 -20 11 -20q33 0 144 96l26 -45q-57 -68 -152 -135.5t-145 -67.5q-48 0 -47 76q0 48 19 125l129 522q7 31 6 47q0 19 -8 19q-35 0 -142 -86zM344 1195q0 40 29 77q31 39 80 39 q39 0 60.5 -27t21.5 -65v-6q0 -44 -30 -76q-32 -35 -79 -35q-35 0 -58.5 24.5t-23.5 68.5z" />
<glyph unicode="j" horiz-adv-x="544" d="M-211 -461q0 49 49 90q23 23 45 11q53 -35 101 -35q86 0 137 221q25 104 166 815q6 25 9 42t4 30.5t1 21.5t-1 13.5t-4 7.5t-7 2q-14 0 -61.5 -32t-88.5 -69l-26 48q88 94 182 154.5t141 60.5q34 0 35 -72q0 -52 -18 -141l-58 -288l-57 -284q-76 -375 -242 -532 q-135 -129 -219 -129q-31 0 -59.5 19t-28.5 46zM330 1206q0 43 31.5 81t80.5 38q39 0 60.5 -26.5t21.5 -63.5q0 -49 -30.5 -84t-77.5 -35q-37 0 -61.5 24.5t-24.5 65.5z" />
<glyph unicode="k" horiz-adv-x="962" d="M68 -12q156 659 278 1255q6 31 6 50t-6 26q-12 14 -74 16h-63l10 51q72 8 141.5 27t110.5 32t49 13q15 0 15 -26q0 -14 -5 -35l-206 -910h4q61 72 176 183q242 250 358 250q39 0 61.5 -19.5t22.5 -44.5q0 -43 -39 -82q-18 -18 -33 -12q-37 16 -77 16q-115 0 -269 -170 q59 -195 168 -401q51 -98 82 -98q35 0 117 94l35 -41q-119 -186 -225 -187q-35 0 -67 29t-69 107q-76 156 -155 381q-96 -100 -115 -132l-70 -346q-70 -12 -149 -39z" />
<glyph unicode="l" horiz-adv-x="509" d="M127 223l213 1008q7 34 7 55t-7 30q-14 17 -84 19h-57l8 51q70 6 139.5 25t112.5 33t51 14q16 0 16 -27q0 -14 -4 -34l-252 -1198q-6 -28 -5 -45q0 -27 14 -27q18 0 69 35t92 78l31 -45q-76 -92 -170 -156t-143 -64q-51 0 -52 93q0 59 21 155z" />
<glyph unicode="m" horiz-adv-x="1611" d="M115 -10q94 354 170 694q9 40 8 62q0 24 -10 26q-14 0 -58.5 -31.5t-83.5 -68.5l-24 51q82 88 163.5 142.5t125.5 54.5q43 0 43 -80q0 -63 -27 -174l-37 -144h4q172 240 369 357q72 41 125 41q76 0 76 -123q0 -73 -27 -189l-19 -84h5q176 248 376 357q76 39 123 39 q71 0 72 -115q0 -70 -27 -182l-100 -428q-7 -29 -7 -46q0 -20 11 -20q41 0 139 94l27 -51q-76 -86 -161 -141.5t-128 -55.5q-50 0 -50 80q0 49 19 129l109 473q13 52 13 84q0 49 -31 50q-68 0 -212.5 -155t-205.5 -271q-53 -207 -80 -353q-68 -8 -150 -35l-12 13 q115 465 148 614q19 88 19 131q0 8 -1 15q-4 41 -35 41q-70 0 -214 -157t-200 -269q-37 -121 -84 -353q-66 -8 -147 -35z" />
<glyph unicode="n" horiz-adv-x="1089" d="M117 -8q94 365 168 694q8 37 8 57q0 25 -12 25q-35 0 -131 -92l-29 49q82 88 163 141.5t126 53.5q39 0 39 -73q0 -56 -23 -155l-43 -178h4q180 246 377 358q76 47 135 48q73 0 73 -115q0 -69 -26 -178l-100 -424q-7 -33 -7 -51q0 -23 11 -23q39 0 133 94l31 -49 q-86 -94 -166 -146.5t-123 -52.5q-51 0 -51 80q0 51 20 133l107 455q14 60 14 96q0 50 -29 49q-66 0 -208 -144t-222 -282q-59 -244 -80 -346q-88 -16 -147 -39z" />
<glyph unicode="o" horiz-adv-x="962" d="M94 293q0 190 88 339.5t224 219.5q121 68 223 68q127 0 198.5 -84t71.5 -236q0 -137 -57.5 -273.5t-161.5 -222.5q-154 -129 -315 -129q-137 0 -204 91.5t-67 226.5zM266 305q0 -115 46 -181.5t126 -66.5q33 0 68 13q86 37 154 187q67 146 67 328v11q0 119 -46 181.5 t-120 62.5q-41 0 -78 -17q-76 -35 -146.5 -171t-70.5 -347z" />
<glyph unicode="p" horiz-adv-x="995" d="M-137 -516l10 51q96 18 127 47t51 121l230 1069q-90 -31 -166 -76l-15 54q78 55 197 100l22 94q45 55 150 119l18 -12l-34 -158q82 27 190 27q295 0 295 -285q0 -227 -174 -422q-164 -182 -381 -238q-72 0 -121 21l-57 -287q-9 -48 -9 -77q0 -25 7 -36q14 -24 90 -32 l51 -4l-8 -54zM293 135q20 -27 56 -48t73 -21q113 0 228.5 173t115.5 363q0 129 -57.5 179t-157.5 50q-49 0 -117 -14z" />
<glyph unicode="q" horiz-adv-x="991" d="M78 205q0 160 66.5 306t172.5 241q137 119 310 155q57 12 108 13q66 0 176 -31l33 -8q-55 -227 -96 -449l-133 -713q-8 -51 -9 -81q0 -29 8 -40q15 -24 89 -32l49 -8l-8 -50l-475 -24l10 51l35 6q74 18 99.5 46t43.5 118l131 631h-4q-102 -131 -260 -258 q-131 -102 -215 -103q-55 0 -93 65t-38 165zM250 258q0 -145 61 -145q70 0 193 116.5t198 235.5q37 135 72 334q-57 31 -145 30q-90 0 -154 -45q-102 -74 -163.5 -227.5t-61.5 -298.5z" />
<glyph unicode="r" horiz-adv-x="749" d="M98 719q78 84 161 142.5t126 58.5q45 0 45 -85q0 -57 -20 -153l-23 -102h6q82 154 166 247t143 93q53 0 89 -54q12 -21 11 -41q0 -22 -14 -45q-23 -39 -55 -61q-25 -18 -45 0q-35 35 -67 35q-41 0 -105 -88q-102 -143 -147 -252q-27 -121 -82 -400q-66 -12 -146 -37 l-14 15q113 481 149 688q7 40 8 62q0 28 -12 28q-39 0 -145 -98z" />
<glyph unicode="s" horiz-adv-x="690" d="M25 123q-2 49 59 86q35 16 51 -6q84 -125 197 -125q59 0 98 36t39 87q0 80 -121 172q-84 63 -131 120.5t-47 129.5q0 106 106 196q49 43 115 72t115 29q63 0 110.5 -37t47.5 -78q0 -51 -52 -86q-27 -18 -45 10q-74 92 -159 92q-45 0 -78 -31.5t-33 -83t34 -91.5t101 -91 q94 -72 132 -124t38 -115q0 -115 -122 -212.5t-249 -97.5q-74 0 -140 47.5t-66 100.5z" />
<glyph unicode="t" horiz-adv-x="628" d="M129 819l51 64h125l47 192l154 129l20 -12l-73 -309h239l-53 -72l-205 -8l-119 -561q-11 -50 -10 -80q0 -43 23 -43q25 0 84 39t98 80l31 -43q-63 -76 -160.5 -148t-171.5 -72q-27 0 -42 24t-20 83q-1 8 0 18q0 56 21 146l119 555h-152z" />
<glyph unicode="u" horiz-adv-x="1091" d="M117 727q88 86 174 139.5t129 53.5q35 0 40 -38q1 -7 1 -17q0 -41 -19 -124l-114 -491q-11 -48 -11 -79q0 -56 35 -56q78 0 215.5 147.5t208.5 276.5q41 170 74 327l141 54h23q-100 -397 -162 -713q-5 -31 -5 -50q0 -32 13 -32q14 0 60.5 32.5t87.5 73.5l26 -47 q-72 -86 -161 -147.5t-136 -61.5q-49 0 -49 84q0 51 19 134q14 61 38 180h-4q-160 -215 -329 -334q-88 -63 -166 -64q-88 0 -89 122q0 56 19 139l113 471q7 28 7 44q0 21 -11 23q-29 0 -144 -98z" />
<glyph unicode="v" horiz-adv-x="915" d="M88 707q59 86 129 149.5t117 63.5q72 0 88 -228q23 -387 27 -514h4q317 395 317 541q0 57 -20 90q-12 23 0 49q10 27 34.5 44.5t51.5 17.5q37 0 61.5 -33t26.5 -84q0 -100 -125 -275l-426 -553h-56q-8 268 -38 637q-10 158 -37 158q-29 0 -119 -108z" />
<glyph unicode="w" horiz-adv-x="1372" d="M94 707q162 213 260 213q68 0 74 -203q7 -269 7 -418q0 -37 -1 -68h4l119 201l144 246l118 209h51l30 -330q22 -240 36 -371h4q289 395 291 527q0 55 -23 96q-10 18 0 51q29 59 84 60q39 0 63.5 -33t24.5 -84q0 -80 -84 -215q-106 -174 -432 -613h-57q-20 258 -57 637h-5 l-391 -637h-53q-2 223 -20 660q-6 135 -31 135t-123 -104z" />
<glyph unicode="x" horiz-adv-x="968" d="M26.5 140q26.5 30 55.5 30q18 0 33 -20q20 -20 47 -21q74 0 284 307l-69 215q-41 129 -70 129q-37 0 -129 -116l-37 41q150 215 244 215q39 0 64.5 -50.5t66.5 -175.5l37 -112q131 188 207 263t141 75q39 0 62.5 -27t23.5 -62q-2 -35 -28.5 -63.5t-51.5 -28.5 q-14 0 -30 19q-20 25 -46 24q-45 0 -124 -102q-90 -106 -132 -168l66 -205q57 -188 102 -188q47 0 148 119l35 -41q-143 -221 -260 -222q-78 0 -136 187l-63 200q-137 -217 -219 -302t-154 -85q-41 0 -68 29q-26 27 -26 64q0 42 26.5 72z" />
<glyph unicode="y" horiz-adv-x="905" d="M-125 -481q276 184 481 458q-4 279 -63 668q-14 127 -43 127q-12 0 -47 -33.5t-72 -85.5l-35 45q57 88 124 155t118 67q80 0 106 -242q23 -195 45 -524h5q199 305 247 438q29 76 29 125q-2 43 -25 96q-10 25 5 49q10 25 34.5 41.5t51.5 16.5q35 0 57 -31t25 -82 q0 -88 -74 -217q-154 -279 -371 -580q-219 -315 -369 -481l-213 -55z" />
<glyph unicode="z" horiz-adv-x="856" d="M53 -18q-14 22 -14 48q0 65 86 156l569 584q-35 -6 -74 -6q-24 0 -51 2q-160 12 -194 12q-66 0 -109 -42t-94 -134l-51 27q39 90 82 164q76 121 151 120q68 0 217 -24q104 -18 164 -19q55 0 125 78l43 -43l-119 -139l-155 -167l-227 -234l-171 -177q8 1 16 1 q53 0 140 -33q139 -49 184 -50q94 0 209 177l45 -39q-80 -160 -145.5 -222.5t-136.5 -62.5q-76 0 -273 100q-50 23 -85 24q-26 0 -44 -13q-35 -23 -63 -72q-11 -16 -25 -16z" />
<glyph unicode="{" horiz-adv-x="692" d="M170 524l12 60q61 4 103.5 22.5t63 49t28.5 52t16 58.5t21 182q12 135 32 252q49 254 338 254l-4 -55q-102 -12 -145 -58.5t-57 -128.5q-12 -63 -21 -194q-14 -190 -20 -223q-35 -199 -207 -236l-2 -8q127 -31 127 -168q0 -43 -11.5 -88t-32.5 -111l-30 -92 q-2 -12 -19.5 -71.5t-26.5 -102.5t-9 -78q0 -111 137 -129l-14 -55q-250 0 -250 194q0 88 65 312q55 195 55 239q1 113 -149 123z" />
<glyph unicode="|" horiz-adv-x="489" d="M207 -512v2048h129v-2048h-129z" />
<glyph unicode="}" horiz-adv-x="692" d="M-18 -344l8 55q100 14 143 60.5t57 124.5q14 86 23 196q6 147 18 221q39 201 205 238l2 8q-66 14 -97.5 67.5t-25.5 131.5q2 33 12.5 74.5t31 103t26.5 82.5q47 170 51 219q12 141 -133 162l14 55q47 0 89.5 -8t83 -30.5t62 -69t15.5 -113.5q-2 -76 -63 -285 q-51 -176 -53 -215q-6 -59 28.5 -101t118.5 -48l-12 -58q-61 -4 -103.5 -21.5t-63 -49t-27.5 -52t-15 -59.5q-8 -37 -21 -182q-14 -154 -34 -252q-47 -254 -340 -254z" />
<glyph unicode="~" horiz-adv-x="1153" d="M145 367q90 221 267 221q104 0 233 -74q143 -82 215 -82q61 0 101 41t71 129l76 -41q-68 -231 -260 -231q-100 0 -260 94q-111 63 -185 63q-121 0 -186 -172z" />
<glyph unicode="&#xa1;" horiz-adv-x="528" d="M0 -412q6 27 45 164l207 735q8 10 33.5 10.5t29.5 -8.5q-18 -186 -77 -737q-12 -137 -19 -164q-10 -59 -119 -59h-2q-55 0 -78.5 14t-19.5 45zM225 784q0 59 36 96.5t89 37.5h2q45 0 75 -33t30 -84q0 -57 -37 -94t-88 -37q-45 0 -76 32.5t-31 81.5z" />
<glyph unicode="&#xa2;" d="M147 565q0 203 149.5 354.5t352.5 180.5l33 170h74l-33 -164q135 0 213 -66q27 -20 27 -53q0 -29 -26 -55.5t-50 -26.5q-14 0 -31 19q-63 82 -151 94l-136 -713q6 0 14.5 -1t12.5 -1q135 0 268 111l31 -45q-158 -166 -348 -181l-39 -198h-72l39 200q-141 12 -234.5 110.5 t-93.5 264.5zM315 612q0 -121 52.5 -196.5t130.5 -96.5l135 703q-150 -2 -234 -121t-84 -289z" />
<glyph unicode="&#xa3;" d="M6 86q27 39 117 121q133 127 145 401h-182l16 72h168q4 98 15 168q33 225 215 364q121 90 223 91q66 0 115 -28t67 -56q18 -33 0 -64q-10 -16 -41 -43q-29 -20 -55 6q-86 86 -170 86q-143 0 -176 -205q-12 -76 -17 -319h347l-15 -72h-336q-18 -137 -76.5 -230 t-158.5 -175q86 0 215 -62q147 -72 242 -71q117 0 129 90q6 39 -5 69q-6 23 13 47q49 53 80 54q20 0 30.5 -29t1.5 -70q-10 -57 -58 -119.5t-112 -101.5q-104 -66 -190 -65.5t-277 108.5q-86 49 -131 49q-51 0 -100 -86q-16 -25 -29 -24q-61 31 -10 94z" />
<glyph unicode="&#xa4;" d="M94 276l144 138q-90 106 -91 252q0 150 93 252l-146 139l82 80l133 -152q98 78 221 78h2q123 0 220 -78l133 152l86 -80l-146 -139q90 -106 90 -252q0 -143 -90 -252l146 -138l-86 -81l-133 151q-96 -78 -221 -78t-222 78l-133 -151zM272 666q0 -131 75 -214t185.5 -83 t184.5 83t74 214t-74 214t-187 83q-109 0 -183.5 -83t-74.5 -214z" />
<glyph unicode="&#xa5;" d="M119 373l16 69h266l29 156h-266l16 70h246q-20 109 -111 450q-16 59 -43.5 79t-103.5 26l10 53h422l-12 -53l-66 -11q-39 -4 -50 -18t-3 -55q10 -49 96 -434q178 266 264 423q23 47 15 63.5t-53 22.5l-64 9l14 53h381l-12 -53q-78 -8 -112.5 -32t-94.5 -106 q-119 -160 -282 -417h245l-16 -70h-262l-33 -156h270l-16 -69h-268l-31 -162q-18 -100 5.5 -122.5t154.5 -33.5l-13 -55h-516l13 55q123 8 152.5 33t49.5 123l33 162h-270z" />
<glyph unicode="&#xa6;" horiz-adv-x="489" d="M207 -358v716h129v-716h-129zM207 666v716h129v-716h-129z" />
<glyph unicode="&#xa7;" horiz-adv-x="956" d="M94 -98q2 20 22.5 41.5t39.5 31.5q20 12 37 -2q78 -66 167 -65q63 0 115.5 37t54.5 98q4 88 -104 207q-33 35 -85 100.5t-65 77.5q-127 147 -126 293q0 209 227 418q160 150 332 180q98 0 143 -51q27 -25 22 -51q0 -39 -51 -72q-18 -10 -35 2l-10 8q-10 10 -16 14l-19 13 q-12 8 -23 13t-27.5 10t-34 8.5t-37.5 3.5q-68 0 -109 -39t-41 -88q0 -68 64 -140l167 -182q164 -168 164 -330q0 -233 -262 -467q-168 -147 -334 -180q-86 0 -143 49q-33 27 -33 62zM262 799q0 -133 103 -248l100 -113q115 -129 145 -200q33 -70 21 -152l4 -4 q106 119 106 260q0 150 -108 274l-193 222q-82 94 -67 204l-4 2q-106 -100 -107 -243v-2z" />
<glyph unicode="&#xa8;" horiz-adv-x="819" d="M283 1178q0 43 27.5 78.5t76.5 35.5q35 0 56.5 -25.5t21.5 -60.5q0 -47 -29.5 -79.5t-73.5 -32.5q-35 0 -57 23.5t-22 60.5zM643 1178q0 43 27.5 78.5t77.5 35.5q35 0 56 -25.5t21 -60.5q0 -47 -29.5 -79.5t-72.5 -32.5q-35 0 -57.5 23.5t-22.5 60.5z" />
<glyph unicode="&#xa9;" horiz-adv-x="1419" d="M145 659q0 262 176.5 442.5t440.5 180.5q262 0 438 -180t176 -443q0 -260 -176 -439t-440 -179t-439.5 179t-175.5 439zM240 661.5q0 -235.5 148.5 -394t373.5 -158.5t372.5 158.5t147.5 394t-148.5 394t-373.5 158.5q-223 0 -371.5 -158.5t-148.5 -394zM416 655 q0 164 115.5 262.5t281.5 98.5q125 0 215 -35q14 -90 23 -186l-43 -7q-35 86 -83 127t-124 41q-111 0 -173.5 -79.5t-62.5 -206.5q0 -135 68.5 -219t171.5 -84q143 0 223 172l45 -11q-39 -158 -51 -184q-117 -39 -217 -39q-186 0 -287.5 104.5t-101.5 245.5z" />
<glyph unicode="&#xaa;" horiz-adv-x="677" d="M135 692q0 92 42 185.5t102 146.5q49 43 123.5 74.5t140.5 31.5h2q29 0 69 -8q25 -8 70 -8q-59 -270 -80 -389q-8 -57 4 -57q25 0 88 59l17 -41q-49 -55 -108.5 -93t-88.5 -38q-55 0 -35 104l25 111h-6q-74 -90 -166 -156q-78 -59 -125 -59q-74 0 -74 137zM266 731 q0 -68 29 -67q43 0 119 81q51 51 94 119q37 59 49 180q-27 16 -82 17q-39 0 -67 -17q-51 -25 -95 -110q-47 -105 -47 -203z" />
<glyph unicode="&#xab;" horiz-adv-x="913" d="M115 453q113 102 348 372l43 -32l-219 -340l149 -342l-47 -31q-176 256 -274 373zM446 453q104 96 351 372l43 -32l-222 -340l152 -342l-49 -31q-191 277 -275 373z" />
<glyph unicode="&#xac;" horiz-adv-x="1220" d="M127 651v103h977v-555h-117v452h-860z" />
<glyph unicode="&#xad;" horiz-adv-x="684" d="M102 406l37 112h471l-37 -112h-471z" />
<glyph unicode="&#xae;" horiz-adv-x="641" d="M143 1090q0 106 78 185t189 79q113 0 188.5 -78t75.5 -186q0 -106 -77 -184.5t-189.5 -78.5t-188.5 75t-76 188zM203 1089.5q0 -92.5 59.5 -154t147.5 -61.5t147 61.5t59 154.5q0 90 -60 153.5t-148.5 63.5t-146.5 -62.5t-58 -155zM281 950v31q29 2 33.5 7t4.5 32v141 q0 27 -5 32t-31 7v31h139q98 0 98 -74q0 -49 -55 -70q27 -47 67 -94q14 -14 27 -20l-6 -25q-70 0 -100 43q-27 41 -39 62q-10 14 -25 14h-8v-47q0 -27 5 -32t32 -7v-31h-137zM381 1102h16q18 0 35 8q23 16 23 41q0 49 -49 49q-25 0 -25 -24v-74z" />
<glyph unicode="&#xaf;" horiz-adv-x="819" d="M291 1120l26 105h457l-24 -105h-459z" />
<glyph unicode="&#xb0;" horiz-adv-x="716" d="M178 1063q0 127 90 212t217 85q117 0 194 -73t77 -195q0 -131 -88 -212t-219 -81q-117 0 -194 71.5t-77 192.5zM295 1063q0 -78 44 -130t118 -52q84 0 134 59t50 145t-44 139.5t-120 53.5q-78 0 -130 -60.5t-52 -154.5z" />
<glyph unicode="&#xb1;" horiz-adv-x="1220" d="M121 0v102h995v-102h-995zM121 637v102h440v391h117v-391h438v-102h-438v-418h-117v418h-440z" />
<glyph unicode="&#xb2;" horiz-adv-x="667" d="M100 811l9 37q125 92 239 192q193 170 193 283q0 123 -121 123q-82 0 -176 -117l-35 35l80 100q76 82 190 82q84 0 143.5 -53t59.5 -145q0 -29 -7 -56.5t-27 -56.5l-33 -47q-13 -18 -47 -47l-47 -40q-13 -11 -53 -42l-48 -37l-125 -100v-4h188q53 0 82 15t68 66l43 -18 l-80 -170h-496z" />
<glyph unicode="&#xb3;" horiz-adv-x="667" d="M147 903q10 31 41 49q20 14 43 -6q80 -70 152 -69q59 0 100 40.5t41 112.5q0 70 -39 104.5t-98 34.5q-41 0 -78 -12l-12 49q98 20 161.5 64.5t63.5 101.5q0 86 -96 86q-82 0 -154 -96l-34 33l63 75q63 76 178 76h2q72 0 124 -40t52 -111q0 -82 -135 -148v-4 q57 -14 99.5 -56t42.5 -104q0 -145 -175 -231q-98 -53 -184 -53q-47 0 -88 16t-57 35q-25 24 -13 53z" />
<glyph unicode="&#xb4;" horiz-adv-x="819" d="M418 1038q119 186 188 320q23 6 86.5 14t83.5 4l6 -22l-317 -348z" />
<glyph unicode="&#xb5;" horiz-adv-x="1046" d="M4 -381q4 92 74 410l190 845l148 44l14 -11q-96 -399 -145 -626q-16 -82 -3 -126t50 -44q72 0 197.5 146t195.5 278q41 170 74 331l141 54h23q-92 -365 -160 -715q-12 -80 8 -80q14 0 59 32.5t86 73.5l29 -47q-74 -88 -161 -148.5t-136 -60.5q-80 0 -31 218l18.5 81 t18.5 93h-4q-158 -221 -284 -326q-78 -66 -144 -66q-61 0 -86 91h-4q-45 -160 -39 -302q2 -74 22.5 -133t43.5 -82l2 -14q-14 -23 -47 -43t-72 -20q-35 0 -57.5 37.5t-20.5 109.5z" />
<glyph unicode="&#xb6;" horiz-adv-x="999" d="M125 -317q8 33 45 55q18 18 41 2q63 -47 129 -47q74 0 124 69.5t93 282.5l51 268l-133 -55q-12 -6 -37 -6q-106 0 -189 106.5t-83 253.5q0 223 161.5 367.5t377.5 144.5h380l5 -26l-72 -51l-168 -21l-188 -969q-47 -252 -205 -391q-47 -41 -105.5 -66.5t-85.5 -25.5 q-82 0 -127 49q-28 29 -14 60z" />
<glyph unicode="&#xb7;" horiz-adv-x="481" d="M145 461q0 55 35 92t86 37q45 0 73 -32t28 -79q0 -59 -36 -93t-85 -34q-45 0 -73 31t-28 78z" />
<glyph unicode="&#xb8;" horiz-adv-x="819" d="M162 -418q139 63 141 123q2 27 -37 76q-33 37 -36 59.5t24 59.5l84 100h78l-43 -51q-23 -29 -23 -43.5t23 -40.5q63 -76 61 -135q-4 -59 -73.5 -115.5t-174.5 -87.5z" />
<glyph unicode="&#xb9;" horiz-adv-x="667" d="M186 811l13 47q80 6 105.5 24.5t39.5 92.5l72 368q10 61 2 74t-60 19l-57 4l10 43q131 18 273 63l-111 -571q-12 -74 7.5 -91.5t107.5 -25.5l-13 -47h-389z" />
<glyph unicode="&#xba;" horiz-adv-x="643" d="M152 764q0 106 52 192t130 131q74 43 151 43q86 0 137.5 -55t51.5 -153q0 -182 -133 -291q-98 -76 -195 -76q-94 0 -144 59.5t-50 149.5zM283 772q0 -154 100 -154q25 0 41 9q45 16 85 103t38 204q-4 137 -103 137q-20 0 -41 -10q-45 -18 -82.5 -93t-37.5 -196z" />
<glyph unicode="&#xbb;" horiz-adv-x="913" d="M125 113l221 340l-151 342l49 30q199 -285 272 -372q-127 -119 -348 -373zM457 113l223 340l-152 342l47 30q188 -272 275 -372q-113 -102 -348 -373z" />
<glyph unicode="&#xbc;" horiz-adv-x="1529" d="M156 567l12 47q80 8 105.5 26.5t39.5 90.5l72 371q10 61 2 73.5t-59 16.5l-58 4l11 45q113 12 274 59l-111 -569q-14 -74 5.5 -90t109.5 -27l-10 -47h-393zM270 -4l1030 1343l58 -47l-1032 -1347zM770 201l10 47q233 260 461 487h86l-90 -463h119l-13 -71h-118l-11 -51 q-12 -63 4.5 -80t90.5 -25l-9 -45h-362l10 45q84 8 107.5 23.5t36.5 81.5l10 51h-332zM891 272h225l64 320h-4z" />
<glyph unicode="&#xbd;" horiz-adv-x="1515" d="M143 567l13 47q82 8 107.5 26.5t37.5 90.5l72 371q10 61 2 73.5t-60 16.5l-57 4l12 45q111 12 273 59l-111 -569q-14 -74 5.5 -90t109.5 -27l-12 -47h-392zM244 -4l1028 1343l57 -47l-1030 -1345zM811 0l8 37q125 92 240 192l93 89q32 32 65.5 87.5t33.5 106.5 q0 123 -123 123q-74 0 -174 -115l-34 33l79 100q76 82 197 82q80 0 138.5 -54t58.5 -146q0 -29 -7.5 -56.5t-27 -55.5l-33.5 -46.5t-47 -46.5l-46 -40q-13 -11 -53 -42l-49 -37l-124 -100v-5h188q53 0 82 15.5t70 66.5l40 -18l-79 -170h-496z" />
<glyph unicode="&#xbe;" horiz-adv-x="1515" d="M170 655q8 31 41 54q23 12 43 -9q82 -72 152 -71q57 0 99 43t42 112.5t-39 105.5t-100 36q-47 0 -76 -15l-13 50q98 20 162 64t64 101q0 86 -96 86q-84 0 -152 -96l-37 33l64 76q63 76 178 75h2q72 0 124 -39.5t52 -111.5q0 -82 -135 -148v-4q57 -14 99 -55t42 -104 q0 -143 -170 -232q-100 -53 -188 -53q-94 0 -144 49q-26 28 -14 53zM295 -4l1028 1343l57 -47l-1030 -1347zM788 201l11 47q215 240 461 485h86l-91 -461h119l-12 -71h-119l-10 -51q-12 -63 4 -80t90 -25l-8 -45h-361l9 45q86 8 108.5 23.5t34.5 81.5l10 51h-332zM911 272 h224l63 318h-4z" />
<glyph unicode="&#xbf;" horiz-adv-x="733" d="M-12 -170q0 131 137 219q20 14 54 36l51 33l44 29q27 18 40 30l32 27q18 15 27.5 27.5t18.5 26.5t13.5 28.5t4.5 28.5q0 72 -72 140l37 43q70 -39 126 -102.5t56 -133.5q0 -74 -58.5 -136.5t-160.5 -125.5l-116 -71q-40 -26 -87 -75t-47 -92q0 -47 32 -74.5t83 -27.5 q59 0 112.5 25.5t85 51t37.5 25.5q23 0 46.5 -26.5t23.5 -54.5q-2 -43 -57 -82q-96 -68 -189 -68h-2q-109 0 -190.5 90t-81.5 209zM348 784q0 59 37 96.5t90 37.5q45 0 75 -33t30 -82q0 -59 -37 -96t-88 -37q-47 0 -77 31.5t-30 82.5z" />
<glyph unicode="&#xc0;" horiz-adv-x="1359" d="M-37 0l14 55q98 12 135.5 42t108.5 155l615 1091l63 17l57 -365q53 -342 131 -762q18 -111 47 -139t138 -39l-15 -55h-483l14 55q102 10 125 33t13 92q-4 37 -52 303h-428q-82 -154 -141 -278q-43 -92 -24.5 -115.5t135.5 -34.5l-13 -55h-440zM492 569h370l-82 529h-4z M547 1546q6 23 36.5 65t49.5 50l332 -209l-29 -51l-385 129z" />
<glyph unicode="&#xc1;" horiz-adv-x="1359" d="M-37 0l14 55q98 12 135.5 42t108.5 155l615 1091l63 17l57 -365q53 -342 131 -762q18 -111 47 -139t138 -39l-15 -55h-483l14 55q102 10 125 33t13 92q-4 37 -52 303h-428q-82 -154 -141 -278q-43 -92 -24.5 -115.5t135.5 -34.5l-13 -55h-440zM492 569h370l-82 529h-4z M754 1452l329 207q18 -4 49 -46t35 -67l-4 -16l-383 -129z" />
<glyph unicode="&#xc2;" horiz-adv-x="1359" d="M-37 0l14 55q98 12 135.5 42t108.5 155l615 1091l63 17l57 -365q53 -342 131 -762q18 -111 47 -139t138 -39l-15 -55h-483l14 55q102 10 125 33t13 92q-4 37 -52 303h-428q-82 -154 -141 -278q-43 -92 -24.5 -115.5t135.5 -34.5l-13 -55h-440zM492 569h370l-82 529h-4z M602 1446q145 92 279 213h51q84 -104 211 -213l-37 -45q-96 39 -219 119q-158 -84 -258 -119z" />
<glyph unicode="&#xc3;" horiz-adv-x="1359" d="M-37 0l14 55q98 12 135.5 42t108.5 155l615 1091l63 17l57 -365q53 -342 131 -762q18 -111 47 -139t138 -39l-15 -55h-483l14 55q102 10 125 33t13 92q-4 37 -52 303h-428q-82 -154 -141 -278q-43 -92 -24.5 -115.5t135.5 -34.5l-13 -55h-440zM492 569h370l-82 529h-4z M616 1446q63 160 162 164q43 0 123 -39q70 -33 105 -33q47 0 94 84l51 -33q-59 -164 -164 -164q-35 0 -141 48q-57 25 -84 24q-51 0 -96 -90z" />
<glyph unicode="&#xc4;" horiz-adv-x="1359" d="M-37 0l14 55q98 12 135.5 42t108.5 155l615 1091l63 17l57 -365q53 -342 131 -762q18 -111 47 -139t138 -39l-15 -55h-483l14 55q102 10 125 33t13 92q-4 37 -52 303h-428q-82 -154 -141 -278q-43 -92 -24.5 -115.5t135.5 -34.5l-13 -55h-440zM492 569h370l-82 529h-4z M592 1501q0 43 28.5 79t75.5 36q37 0 57.5 -24.5t20.5 -61.5q0 -47 -29.5 -80t-72.5 -33q-35 0 -57.5 23.5t-22.5 60.5zM971 1501q0 43 28.5 79t75.5 36q37 0 57.5 -24.5t20.5 -61.5q0 -47 -29.5 -80t-72.5 -33q-35 0 -57.5 23.5t-22.5 60.5z" />
<glyph unicode="&#xc5;" horiz-adv-x="1359" d="M-39 0l16 55q96 12 133 42t109 155l615 1091l63 17l59 -365q41 -268 129 -762q20 -113 48 -140t137 -38l-15 -55h-483l14 55q102 10 125 33t13 92q-6 45 -23.5 147.5l-26.5 155.5h-428q-102 -193 -143 -278q-43 -92 -24.5 -115.5t137.5 -34.5l-13 -55h-442zM492 569h368 l-82 529h-4zM709 1569q2 84 58 134t134 50q70 0 118 -46t46 -122q-2 -78 -59.5 -127t-135.5 -49q-72 0 -117.5 45t-43.5 115zM801 1575q-2 -43 19.5 -69.5t58.5 -26.5q39 0 65.5 30.5t28.5 79.5q2 43 -18.5 71t-59.5 28t-65.5 -33t-28.5 -80z" />
<glyph unicode="&#xc6;" horiz-adv-x="1769" d="M-76 0l13 55q100 12 145 39t117 125l682 959q33 47 22.5 61t-76.5 21l-108 12l18 57h1039l-35 -307l-60 -6q0 129 -28 180q-16 37 -57.5 50.5t-151.5 13.5h-154q-51 0 -62 -11.5t-22 -66.5l-96 -496h199q129 0 165.5 23.5t73.5 128.5h60l-78 -392h-60q2 113 -23.5 136.5 t-158.5 23.5h-192l-58 -319q-31 -154 11 -189q37 -29 208 -28q115 0 169.5 13t97.5 54q61 57 137 193l57 -19l-34 -86l-53 -134q-26 -65 -38 -91h-962l12 53q129 12 162 41t59 156l70 356h-356q-215 -315 -277 -424q-37 -63 -28.5 -84.5t73.5 -31.5l64 -11l-13 -55h-473z M631 686h317l115 571q-27 0 -59 -30z" />
<glyph unicode="&#xc7;" horiz-adv-x="1304" d="M139 553q0 352 239.5 579.5t614.5 227.5q145 0 346 -57q-2 -31 -7 -148t-9 -174l-61 -6q-10 178 -89 246.5t-227 68.5q-268 0 -438 -214t-170 -511q0 -238 105.5 -381t291.5 -143q150 0 252.5 82t206.5 244l53 -25q-72 -193 -155 -322q-207 -45 -326 -49l-23 -24 q-23 -31 -22.5 -46.5t24.5 -41.5q66 -78 64 -139.5t-73.5 -119t-182.5 -87.5l-21 53q145 63 148 125q2 31 -39 80q-35 39 -38 62.5t28 62.5l61 75q-244 6 -398.5 161t-154.5 421z" />
<glyph unicode="&#xc8;" horiz-adv-x="1144" d="M6 0l12 55q127 10 160 39t55 152l164 839q23 123 1.5 151t-148.5 38l12 55h891q-6 -37 -39 -313l-59 -4q0 131 -27 180q-16 39 -54 53.5t-145 14.5h-159q-51 0 -64.5 -12.5t-23.5 -71.5l-86 -443h198q90 0 128 10.5t57.5 38t46.5 101.5h59l-76 -389h-59q4 113 -19.5 136 t-154.5 23h-195l-67 -358q-31 -164 8 -197q37 -29 207 -28q115 0 171 14t99 55q51 49 137 197l58 -21q-125 -309 -129 -315h-959zM479 1546q6 23 37 65t49 50l334 -209l-29 -51l-387 129z" />
<glyph unicode="&#xc9;" horiz-adv-x="1144" d="M6 0l12 55q127 10 160 39t55 152l164 839q23 123 1.5 151t-148.5 38l12 55h891q-6 -37 -39 -313l-59 -4q0 131 -27 180q-16 39 -54 53.5t-145 14.5h-159q-51 0 -64.5 -12.5t-23.5 -71.5l-86 -443h198q90 0 128 10.5t57.5 38t46.5 101.5h59l-76 -389h-59q4 113 -19.5 136 t-154.5 23h-195l-67 -358q-31 -164 8 -197q37 -29 207 -28q115 0 171 14t99 55q51 49 137 197l58 -21q-125 -309 -129 -315h-959zM635 1452l330 207q18 -4 50 -46t36 -67l-4 -16l-385 -129z" />
<glyph unicode="&#xca;" horiz-adv-x="1144" d="M6 0l12 55q127 10 160 39t55 152l164 839q23 123 1.5 151t-148.5 38l12 55h891q-6 -37 -39 -313l-59 -4q0 131 -27 180q-16 39 -54 53.5t-145 14.5h-159q-51 0 -64.5 -12.5t-23.5 -71.5l-86 -443h198q90 0 128 10.5t57.5 38t46.5 101.5h59l-76 -389h-59q4 113 -19.5 136 t-154.5 23h-195l-67 -358q-31 -164 8 -197q37 -29 207 -28q115 0 171 14t99 55q51 49 137 197l58 -21q-125 -309 -129 -315h-959zM492 1446q164 102 278 213h51q88 -104 213 -213l-39 -45q-88 37 -219 117q-152 -82 -258 -117z" />
<glyph unicode="&#xcb;" horiz-adv-x="1144" d="M6 0l12 55q127 10 160 39t55 152l164 839q23 123 1.5 151t-148.5 38l12 55h891q-6 -37 -39 -313l-59 -4q-4 133 -27 180q-18 39 -55 53.5t-144 14.5h-159q-51 0 -64.5 -12.5t-23.5 -71.5l-86 -443h196q127 0 162 23.5t72 126.5h59l-76 -389h-59q4 113 -19.5 136 t-154.5 23h-195l-69 -358q-29 -164 10 -197q37 -29 207 -28q113 0 170 14t100 55q51 49 137 197l58 -21q-123 -303 -129 -315h-959zM496 1501q0 43 28.5 79t77.5 36q35 0 55.5 -25.5t20.5 -60.5q0 -47 -28.5 -80t-74.5 -33q-35 0 -57 23.5t-22 60.5zM874 1501q0 43 29 79 t78 36q37 0 57.5 -24.5t20.5 -61.5q0 -47 -30 -80t-73 -33q-35 0 -58.5 22.5t-23.5 61.5z" />
<glyph unicode="&#xcc;" horiz-adv-x="686" d="M14 0l15 55q119 8 149.5 37t52.5 146l168 860q20 113 -3 139.5t-152 36.5l12 55h522l-12 -55q-121 -10 -149.5 -37t-51.5 -139l-164 -860q-23 -119 0 -145.5t150 -37.5l-12 -55h-525zM256 1546q6 23 37 65t49 50l332 -209l-29 -51l-385 129z" />
<glyph unicode="&#xcd;" horiz-adv-x="686" d="M14 0l15 55q119 8 149.5 37t52.5 146l168 860q20 113 -3 139.5t-152 36.5l12 55h522l-12 -55q-121 -10 -149.5 -37t-51.5 -139l-164 -860q-23 -119 0 -145.5t150 -37.5l-12 -55h-525zM401 1452l330 207q18 -4 49 -46t35 -67l-4 -16l-383 -129z" />
<glyph unicode="&#xce;" horiz-adv-x="686" d="M14 0l15 55q119 8 149.5 37t52.5 146l168 860q20 113 -3 139.5t-152 36.5l12 55h522l-12 -55q-121 -10 -149.5 -37t-51.5 -139l-164 -860q-23 -119 0 -145.5t150 -37.5l-12 -55h-525zM258 1446q145 92 279 213h51q84 -104 211 -213l-37 -45q-96 39 -219 119 q-158 -84 -258 -119z" />
<glyph unicode="&#xcf;" horiz-adv-x="686" d="M14 0l15 55q119 8 149.5 37t52.5 146l168 860q20 113 -3 139.5t-152 36.5l12 55h522l-12 -55q-121 -10 -149.5 -37t-51.5 -139l-164 -860q-23 -119 0 -145.5t150 -37.5l-12 -55h-525zM256 1501q0 43 28.5 79t75.5 36q37 0 57.5 -24.5t20.5 -61.5q0 -47 -29.5 -80 t-72.5 -33q-35 0 -57.5 23.5t-22.5 60.5zM637 1501q0 43 28.5 79t75.5 36q37 0 57.5 -24.5t20.5 -61.5q0 -47 -29.5 -80t-72.5 -33q-35 0 -57.5 23.5t-22.5 60.5z" />
<glyph unicode="&#xd0;" horiz-adv-x="1472" d="M35 0l16 55q119 12 148.5 39t54.5 148l80 415h-225l18 76h221l68 344q8 47 12 75t0 50.5t-10 32.5t-31 19.5t-45 11.5t-72 8l13 55h510q305 0 479 -134t174 -415q0 -193 -90 -357.5t-250 -268.5q-244 -154 -631 -154h-440zM419 154.5q5 -35.5 36 -54.5q47 -27 139 -26 q168 0 298 63.5t206 169t114.5 229t38.5 259.5q0 207 -108.5 337t-354.5 130q-109 0 -145 -19q-35 -18 -45 -80l-82 -430h318l-17 -76h-317l-70 -378q-16 -89 -11 -124.5z" />
<glyph unicode="&#xd1;" horiz-adv-x="1443" d="M4 0l14 53q84 6 123 31t58 90q33 109 84 354l106 506q14 80 12 111t-24 67q-18 33 -53 45.5t-119 16.5l12 55h293l604 -1042h8l95 510q47 246 55 352q4 70 -30 93.5t-148 31.5l14 55h461l-13 -55q-88 -4 -122.5 -30.5t-55.5 -98.5q-33 -102 -78 -348l-155 -813h-62 l-606 1085h-6l-106 -545q-47 -236 -54 -346q-2 -70 32 -92.5t142 -32.5l-12 -53h-469zM645 1434q63 164 164 163q39 0 121 -36q76 -33 104 -33q47 0 94 84l52 -33q-59 -164 -164 -164q-37 0 -139 47q-57 25 -84 25q-51 0 -99 -90z" />
<glyph unicode="&#xd2;" horiz-adv-x="1449" d="M135 551q0 328 215 568.5t531 240.5q244 0 394 -163t150 -423q0 -332 -213 -568.5t-534 -236.5q-242 0 -392.5 161t-150.5 421zM330 532q0 -219 93 -356t273 -137q162 0 288 120t186.5 289.5t60.5 346.5q0 221 -88 358t-279 137q-154 0 -279.5 -115.5t-190 -288 t-64.5 -354.5zM639 1565q6 23 37 64.5t49 49.5l332 -209l-29 -51l-385 129z" />
<glyph unicode="&#xd3;" horiz-adv-x="1449" d="M135 551q0 328 215 568.5t531 240.5q244 0 394 -163t150 -423q0 -332 -213 -568.5t-534 -236.5q-242 0 -392.5 161t-150.5 421zM330 532q0 -219 93 -356t273 -137q162 0 288 120t186.5 289.5t60.5 346.5q0 221 -88 358t-279 137q-154 0 -279.5 -115.5t-190 -288 t-64.5 -354.5zM729 1470l330 207q18 -4 49 -46t35 -66l-4 -17l-383 -129z" />
<glyph unicode="&#xd4;" horiz-adv-x="1449" d="M135 551q0 328 215 568.5t531 240.5q244 0 394 -163t150 -423q0 -332 -213 -568.5t-534 -236.5q-242 0 -392.5 161t-150.5 421zM330 532q0 -219 93 -356t273 -137q162 0 288 120t186.5 289.5t60.5 346.5q0 221 -88 358t-279 137q-154 0 -279.5 -115.5t-190 -288 t-64.5 -354.5zM614 1464q145 92 279 213h51q84 -104 211 -213l-37 -45q-96 39 -219 119q-158 -84 -258 -119z" />
<glyph unicode="&#xd5;" horiz-adv-x="1449" d="M135 551q0 328 215 568.5t531 240.5q244 0 394 -163t150 -423q0 -332 -213 -568.5t-534 -236.5q-242 0 -392.5 161t-150.5 421zM330 532q0 -219 93 -356t273 -137q162 0 288 120t186.5 289.5t60.5 346.5q0 221 -88 358t-279 137q-154 0 -279.5 -115.5t-190 -288 t-64.5 -354.5zM635 1462q68 166 164 162q39 0 123 -35q76 -33 104 -33q47 0 94 84l49 -32q-59 -164 -163 -164q-37 0 -140 47q-57 25 -84 25q-53 0 -98 -91z" />
<glyph unicode="&#xd6;" horiz-adv-x="1449" d="M135 551q0 328 215 568.5t529 240.5q246 0 396 -163t150 -423q0 -332 -213 -568.5t-534 -236.5q-242 0 -392.5 161t-150.5 421zM330 532q0 -219 93 -356t273 -137q162 0 288 120t186.5 289.5t60.5 346.5q0 221 -88 358t-279 137q-154 0 -279.5 -115.5t-190 -288 t-64.5 -354.5zM612 1520q0 43 28 78.5t77 35.5q35 0 56.5 -25.5t21.5 -60.5q0 -47 -30 -79.5t-73 -32.5q-35 0 -57.5 23.5t-22.5 60.5zM993 1520q0 43 29 78.5t76 35.5q37 0 57.5 -24.5t20.5 -61.5q0 -47 -30 -79.5t-73 -32.5q-35 0 -57.5 23.5t-22.5 60.5z" />
<glyph unicode="&#xd7;" horiz-adv-x="1220" d="M152 96l395 408l-395 403l73 78l398 -405l399 409l76 -76l-400 -409l400 -408l-76 -78l-399 408l-398 -408z" />
<glyph unicode="&#xd8;" horiz-adv-x="1449" d="M135 549q0 213 97.5 399.5t270.5 299t380 112.5q176 0 303 -84l104 143l58 -45l-105 -143q182 -166 182 -457q0 -336 -215 -570.5t-538 -234.5q-164 0 -291 82l-105 -139l-53 51l99 133q-187 166 -187 453zM328 539q0 -211 80 -328l708 969q-78 109 -248 108 q-158 0 -284.5 -115.5t-191 -284.5t-64.5 -349zM453 147q88 -109 241 -108q162 0 289 118.5t188.5 287.5t61.5 343q0 207 -74 326z" />
<glyph unicode="&#xd9;" horiz-adv-x="1447" d="M236 1274l14 55h506l-13 -55q-119 -10 -147.5 -36t-50.5 -146l-94 -502q-51 -264 31.5 -389t248.5 -125q184 0 295 138t170 437l29 144q49 260 53 368q4 61 -31 83t-147 28l12 55h471l-12 -55q-96 -4 -130 -27.5t-50 -83.5q-33 -115 -82 -368l-33 -158 q-74 -379 -242 -535q-145 -133 -348 -133q-197 0 -315 111q-156 150 -92 495l98 517q23 119 2.5 145.5t-143.5 36.5zM653 1546q6 23 37 65t49 50l332 -209l-29 -51l-385 129z" />
<glyph unicode="&#xda;" horiz-adv-x="1447" d="M236 1274l14 55h506l-13 -55q-119 -10 -147.5 -36t-50.5 -146l-94 -502q-51 -264 31.5 -389t248.5 -125q184 0 295 138t170 437l29 144q49 260 53 368q4 61 -31 83t-147 28l12 55h471l-12 -55q-96 -4 -130 -27.5t-50 -83.5q-33 -115 -82 -368l-33 -158 q-74 -379 -242 -535q-145 -133 -348 -133q-197 0 -315 111q-156 150 -92 495l98 517q23 119 2.5 145.5t-143.5 36.5zM809 1452l330 207q18 -4 49 -46t35 -67l-4 -16l-383 -129z" />
<glyph unicode="&#xdb;" horiz-adv-x="1447" d="M236 1274l14 55h506l-13 -55q-119 -10 -147.5 -36t-50.5 -146l-94 -502q-51 -264 31.5 -389t248.5 -125q184 0 295 138t170 437l29 144q49 260 53 368q4 61 -31 83t-147 28l12 55h471l-12 -55q-96 -4 -130 -27.5t-50 -83.5q-33 -115 -82 -368l-33 -158 q-74 -379 -242 -535q-145 -133 -348 -133q-197 0 -315 111q-156 150 -92 495l98 517q23 119 2.5 145.5t-143.5 36.5zM666 1452q145 92 278 213h51q84 -104 211 -213l-37 -45q-96 39 -219 119q-158 -84 -258 -119z" />
<glyph unicode="&#xdc;" horiz-adv-x="1447" d="M236 1274l14 55h506l-13 -55q-119 -10 -147.5 -36t-50.5 -146l-94 -502q-51 -264 31.5 -389t248.5 -125q184 0 295 138t170 437l29 144q49 260 53 368q4 61 -31 83t-147 28l12 55h471l-12 -55q-96 -4 -130 -27.5t-50 -83.5q-33 -115 -82 -368l-33 -158 q-74 -379 -242 -535q-145 -133 -348 -133q-197 0 -315 111q-156 150 -92 495l98 517q23 119 2.5 145.5t-143.5 36.5zM655 1501q0 43 29 79t76 36q37 0 57.5 -24.5t20.5 -61.5q0 -47 -30 -80t-73 -33q-35 0 -57.5 23.5t-22.5 60.5zM1036 1501q0 43 29 79t76 36 q37 0 57.5 -24.5t20.5 -61.5q0 -47 -30 -80t-73 -33q-35 0 -57.5 23.5t-22.5 60.5z" />
<glyph unicode="&#xdd;" horiz-adv-x="1251" d="M195 1274l14 55h473l-10 -55l-72 -10q-51 -6 -62.5 -22.5t5.5 -61.5q115 -317 188 -494q256 360 328 481q31 53 20.5 71.5t-67.5 27.5l-64 8l15 55h442l-14 -55q-100 -10 -140.5 -33.5t-117.5 -120.5q-119 -152 -336 -463q-39 -51 -49 -114l-58 -289q-25 -131 0 -158.5 t164 -40.5l-14 -55h-547l14 55q127 10 159 39t56 160l56 276q12 61 -11 121l-182 479q-35 90 -63.5 112t-126.5 32zM686 1450l330 207q18 -4 49 -46t37 -67l-6 -16l-383 -129z" />
<glyph unicode="&#xde;" horiz-adv-x="1107" d="M23 0l12 53q119 12 147.5 37t50.5 137l166 867q23 113 3.5 141.5t-138.5 40.5l12 53h486l-12 -53q-117 -12 -142.5 -44t-56.5 -206h145q190 0 296 -80t106 -235q0 -188 -144.5 -294t-343.5 -108q-33 0 -73 10l-117 33l-25 -125q-20 -111 5.5 -136t160.5 -38l-12 -53h-526 zM434 418q82 -29 160 -29q51 0 103.5 16.5t102.5 51.5t81.5 101.5t31.5 156.5q0 246 -274 248q-49 0 -86 -13q-20 -8 -33 -63z" />
<glyph unicode="&#xdf;" horiz-adv-x="1048" d="M-258 -446q0 45 55 90q25 16 41 2q53 -43 117 -43q53 0 84 41q68 80 135 514q61 381 98 641h-155l-8 26l59 58h119q33 156 86 263t149 191q147 125 301 125q117 0 184.5 -69.5t67.5 -180.5q0 -74 -31 -127q-244 -172 -243 -315q0 -66 67 -172q94 -152 95 -256 q0 -139 -131.5 -253t-270.5 -114q-63 0 -119.5 37t-56.5 80q0 41 49 72q23 16 45 -2q90 -86 176 -86q76 0 122 52t46 124q0 88 -65 197q-2 4 -15.5 25.5l-17.5 27.5t-15.5 24.5t-14.5 25.5t-12 24.5t-12 25.5l-8 23q-5 14 -7.5 24t-4.5 22.5t-2 24.5q0 80 66.5 163 t199.5 204q18 47 19 106q0 96 -47 154.5t-129 58.5q-57 0 -103.5 -27.5t-80 -81.5t-57 -109.5t-42 -139.5t-29 -139.5t-22.5 -136.5l-6 -41l-72 -435q-86 -485 -256 -665q-63 -68 -126.5 -101.5t-104.5 -33.5t-79 24.5t-38 57.5z" />
<glyph unicode="&#xe0;" horiz-adv-x="1003" d="M80 205q0 156 67.5 310.5t178.5 246.5q84 68 187 113t196 45q55 0 127 -17q53 -12 77 -12l5 -8q-70 -270 -142 -666q-16 -88 4 -88q37 0 150 109l24 -50q-78 -94 -168 -153.5t-133 -59.5q-72 0 -35 181l41 194h-6q-106 -154 -264 -282q-113 -92 -190 -93q-45 0 -82 58.5 t-37 171.5zM250 242q0 -135 55 -136q57 0 192.5 145.5t188.5 256.5q33 104 68 293q-57 29 -136 28q-88 0 -147 -43q-100 -74 -160.5 -229t-60.5 -315zM502 1341l6 19q16 6 71.5 16t77.5 8q12 -59 48 -201l38 -159l-59 -20q-119 231 -182 337z" />
<glyph unicode="&#xe1;" horiz-adv-x="1003" d="M80 205q0 156 67.5 310.5t178.5 246.5q84 68 187 113t196 45q55 0 127 -17q53 -12 77 -12l5 -8q-70 -270 -142 -666q-16 -88 4 -88q37 0 150 109l24 -50q-78 -94 -168 -153.5t-133 -59.5q-72 0 -35 181l41 194h-6q-106 -154 -264 -282q-113 -92 -190 -93q-45 0 -82 58.5 t-37 171.5zM250 242q0 -135 55 -136q57 0 192.5 145.5t188.5 256.5q33 104 68 293q-57 29 -136 28q-88 0 -147 -43q-100 -74 -160.5 -229t-60.5 -315zM559 1036q125 199 189 322q23 6 86 14t84 4l6 -22l-318 -348z" />
<glyph unicode="&#xe2;" horiz-adv-x="1003" d="M80 205q0 156 67.5 310.5t178.5 246.5q84 68 187 113t196 45q55 0 127 -17q53 -12 77 -12l5 -8q-70 -270 -142 -666q-16 -88 4 -88q37 0 150 109l24 -50q-78 -94 -168 -153.5t-133 -59.5q-72 0 -35 181l41 194h-6q-106 -154 -264 -282q-113 -92 -190 -93q-45 0 -82 58.5 t-37 171.5zM250 242q0 -135 55 -136q57 0 192.5 145.5t188.5 256.5q33 104 68 293q-57 29 -136 28q-88 0 -147 -43q-100 -74 -160.5 -229t-60.5 -315zM406 1034q174 201 266 334h45q51 -158 143 -334l-47 -35q-66 76 -145 197q-121 -121 -222 -197z" />
<glyph unicode="&#xe3;" horiz-adv-x="1003" d="M80 205q0 156 67.5 310.5t178.5 246.5q84 68 187 113t196 45q55 0 127 -17q53 -12 77 -12l5 -8q-70 -270 -142 -666q-16 -88 4 -88q37 0 150 109l24 -50q-78 -94 -168 -153.5t-133 -59.5q-72 0 -35 181l41 194h-6q-106 -154 -264 -282q-113 -92 -190 -93q-45 0 -82 58.5 t-37 171.5zM250 242q0 -135 55 -136q57 0 192.5 145.5t188.5 256.5q33 104 68 293q-57 29 -136 28q-88 0 -147 -43q-100 -74 -160.5 -229t-60.5 -315zM393 1083q68 172 164 172q39 0 119 -36q76 -33 108 -33q45 0 95 84l47 -25q-66 -174 -164 -174q-33 0 -139 47 q-49 25 -86 25q-49 0 -97 -90z" />
<glyph unicode="&#xe4;" horiz-adv-x="1003" d="M80 205q0 156 67.5 310.5t178.5 246.5q84 68 187 113t196 45q55 0 127 -17q53 -12 77 -12l5 -8q-70 -270 -142 -666q-16 -88 4 -88q37 0 150 109l24 -50q-78 -94 -168 -153.5t-133 -59.5q-72 0 -35 181l41 194h-6q-106 -154 -264 -282q-113 -92 -190 -93q-45 0 -82 58.5 t-37 171.5zM250 242q0 -135 55 -136q57 0 192.5 145.5t188.5 256.5q33 104 68 293q-57 29 -136 28q-88 0 -147 -43q-100 -74 -160.5 -229t-60.5 -315zM399 1176q0 43 29 78.5t78 35.5q35 0 55.5 -25.5t20.5 -60.5q0 -47 -29 -79.5t-74 -32.5q-35 0 -57.5 23.5t-22.5 60.5z M760 1176q0 43 28.5 78.5t75.5 35.5q37 0 57.5 -24.5t20.5 -61.5q0 -47 -29.5 -79.5t-72.5 -32.5q-35 0 -57.5 23.5t-22.5 60.5z" />
<glyph unicode="&#xe5;" horiz-adv-x="1003" d="M80 205q0 156 67.5 310.5t178.5 246.5q84 68 187 113t196 45q55 0 127 -17q53 -12 77 -12l5 -8q-70 -270 -142 -666q-16 -88 4 -88q37 0 150 109l24 -50q-78 -94 -168 -153.5t-133 -59.5q-72 0 -35 181l41 194h-6q-106 -154 -264 -282q-113 -92 -190 -93q-45 0 -82 58.5 t-37 171.5zM250 242q0 -135 55 -136q57 0 192.5 145.5t188.5 256.5q33 104 68 293q-57 29 -136 28q-88 0 -147 -43q-100 -74 -160.5 -229t-60.5 -315zM479 1174q2 84 61.5 135t139.5 51q72 0 120 -47t46 -127t-61.5 -128t-139.5 -48q-76 0 -122 46t-44 118zM573 1180 q-2 -45 19.5 -74t60.5 -29q41 0 69 32t30 81q2 45 -20.5 73.5t-63.5 28.5q-37 0 -65 -31.5t-30 -80.5z" />
<glyph unicode="&#xe6;" horiz-adv-x="1359" d="M78 203q0 158 63.5 310.5t167.5 244.5q80 70 188.5 116t200.5 46q45 0 88 -13q31 -4 80 -4l8 -8l-28 -119l4 -2q66 66 156 106t157 40q80 0 128 -47.5t48 -114.5q0 -90 -91 -169t-206.5 -126t-253.5 -78q-2 -12 -2 -74q0 -88 35 -149.5t115 -61.5q156 0 319 162l33 -45 q-225 -240 -446 -240q-84 0 -147.5 66t-61.5 223q0 31 2 47l-4 2q-92 -127 -242 -245q-115 -92 -196 -93q-41 0 -78 54.5t-37 171.5zM248 246q0 -131 53 -131q72 0 188 127q125 141 168 231q20 59 47 169t33 159q-49 29 -131 28q-86 0 -133 -30q-88 -57 -147 -197 q-78 -170 -78 -356zM797 453q211 55 299 121.5t90 150.5q0 104 -103 104q-55 0 -102 -28q-139 -90 -184 -348z" />
<glyph unicode="&#xe7;" horiz-adv-x="780" d="M88 266q0 137 57.5 276.5t157.5 227.5q72 61 167 105.5t173 44.5q61 0 106.5 -32t45.5 -69q0 -47 -58 -88q-37 -25 -61 8q-55 82 -148 82q-106 0 -176 -129q-94 -172 -94 -377q-2 -102 36 -159.5t107 -57.5q119 0 285 150l33 -45q-135 -150 -293 -203l-41 -51 q-20 -29 -19 -45.5t23 -44.5q68 -78 66 -139.5t-74 -119t-182 -89.5l-21 51q145 66 148 129q2 33 -41 80q-35 39 -37 62.5t26 62.5l66 81v3q-117 -14 -184.5 63.5t-67.5 222.5z" />
<glyph unicode="&#xe8;" horiz-adv-x="819" d="M90 274q0 150 65.5 294.5t182.5 234.5q150 117 283 117q80 0 129 -48.5t49 -115.5q0 -72 -54.5 -134.5t-144.5 -106.5t-171 -71.5t-171 -50.5q-2 -27 -2 -65q0 -231 158 -232q137 0 301 158l33 -47q-215 -231 -431 -232q-90 0 -158.5 67.5t-68.5 231.5zM266 455 q381 104 381 268q0 51 -28.5 81t-73.5 30q-51 0 -86 -23q-150 -92 -193 -356zM406 1339l6 19q14 6 70.5 16t78.5 8q12 -59 47 -201l39 -159l-59 -18q-129 245 -182 335z" />
<glyph unicode="&#xe9;" horiz-adv-x="819" d="M90 274q0 150 65.5 294.5t182.5 234.5q150 117 283 117q80 0 129 -48.5t49 -115.5q0 -72 -54.5 -134.5t-144.5 -106.5t-171 -71.5t-171 -50.5q-2 -27 -2 -65q0 -231 158 -232q137 0 301 158l33 -47q-215 -231 -431 -232q-90 0 -158.5 67.5t-68.5 231.5zM266 455 q381 104 381 268q0 51 -28.5 81t-73.5 30q-51 0 -86 -23q-150 -92 -193 -356zM481 1038q119 186 189 320q23 6 86 14t84 4l6 -22l-318 -348z" />
<glyph unicode="&#xea;" horiz-adv-x="819" d="M90 274q0 150 65.5 294.5t182.5 234.5q150 117 283 117q80 0 129 -48.5t49 -115.5q0 -72 -54.5 -134.5t-144.5 -106.5t-171 -71.5t-171 -50.5q-2 -27 -2 -65q0 -231 158 -232q137 0 301 158l33 -47q-215 -231 -431 -232q-90 0 -158.5 67.5t-68.5 231.5zM266 455 q381 104 381 268q0 51 -28.5 81t-73.5 30q-51 0 -86 -23q-150 -92 -193 -356zM317 1034q174 201 267 334h45q51 -158 143 -334l-47 -35q-66 76 -145 197q-121 -121 -222 -197z" />
<glyph unicode="&#xeb;" horiz-adv-x="819" d="M90 274q0 147 64.5 293t181.5 236q150 117 285 117q80 0 129 -48.5t49 -115.5q0 -227 -541 -363q-2 -27 -2 -65q0 -231 156 -232q139 0 301 158l35 -47q-217 -231 -431 -232q-90 0 -158.5 67.5t-68.5 231.5zM266 455q381 104 381 268q0 51 -28.5 81t-75.5 30 q-51 0 -86 -23q-150 -92 -191 -356zM305 1176q0 43 28.5 78.5t78.5 35.5q35 0 55 -25.5t20 -60.5q0 -47 -28.5 -79.5t-73.5 -32.5q-35 0 -57.5 23.5t-22.5 60.5zM668 1176q0 43 28.5 78.5t75.5 35.5q37 0 57.5 -24.5t20.5 -61.5q0 -47 -29.5 -79.5t-72.5 -32.5 q-35 0 -57.5 23.5t-22.5 60.5z" />
<glyph unicode="&#xec;" horiz-adv-x="561" d="M121 725q82 80 174 137.5t135 57.5q61 0 21 -162l-140 -565q-16 -66 4 -66q35 0 146 96l24 -43q-57 -68 -152 -136.5t-147 -68.5q-76 0 -26 201l127 524q16 59 -2 66q-33 0 -140 -88zM227 1341l6 17q14 8 70.5 18t79.5 6q12 -59 47 -201l39 -159l-59 -18 q-130 245 -183 337z" />
<glyph unicode="&#xed;" horiz-adv-x="561" d="M121 725q82 80 174 137.5t135 57.5q61 0 21 -162l-140 -565q-16 -66 4 -66q35 0 146 96l24 -43q-57 -68 -152 -136.5t-147 -68.5q-76 0 -26 201l127 524q16 59 -2 66q-33 0 -140 -88zM322 1036q119 186 188 320q18 6 82.5 14t87.5 6l6 -24l-317 -348z" />
<glyph unicode="&#xee;" horiz-adv-x="561" d="M121 725q82 80 174 137.5t135 57.5q61 0 21 -162l-140 -565q-16 -66 4 -66q35 0 146 96l24 -43q-57 -68 -152 -136.5t-147 -68.5q-76 0 -26 201l127 524q16 59 -2 66q-33 0 -140 -88zM160 1036q172 199 266 332h45q51 -158 143 -334l-47 -35q-53 61 -145 197 q-129 -125 -223 -197z" />
<glyph unicode="&#xef;" horiz-adv-x="561" d="M121 725q82 80 174 137.5t135 57.5q61 0 21 -162l-140 -565q-16 -66 4 -66q35 0 146 96l24 -43q-55 -68 -152 -136.5t-147 -68.5q-76 0 -26 201l127 524q16 59 -2 66q-33 0 -140 -88zM160 1176q0 43 27.5 78.5t76.5 35.5q35 0 56.5 -24.5t21.5 -61.5q0 -47 -29.5 -79.5 t-72.5 -32.5q-35 0 -57.5 23.5t-22.5 60.5zM518 1176q0 43 28.5 78.5t78.5 35.5q35 0 55 -24.5t20 -61.5q0 -47 -28.5 -79.5t-73.5 -32.5q-35 0 -57.5 23.5t-22.5 60.5z" />
<glyph unicode="&#xf0;" horiz-adv-x="954" d="M100 289q0 195 87 339t208 212q141 82 256 78q31 0 78 -15q-2 45 -34.5 123t-65.5 127l-295 -158l-31 64l283 149q-29 45 -110 107.5t-157 87.5q0 37 27 55q76 -14 172 -68.5t164 -125.5l256 135l35 -60l-238 -131q172 -227 172 -516q0 -172 -61.5 -330.5t-167.5 -252.5 q-154 -133 -322 -134q-127 0 -191.5 93.5t-64.5 220.5zM270 322q0 -115 42 -190t124 -75q27 0 53 13q86 33 170 199.5t82 410.5q0 90 -36 117q-49 41 -132 41q-53 0 -100 -27q-66 -31 -134.5 -157.5t-68.5 -331.5z" />
<glyph unicode="&#xf1;" horiz-adv-x="1089" d="M117 -8q94 365 168 694q18 82 -4 82q-35 0 -131 -92l-29 49q82 88 163 141.5t126 53.5q70 0 16 -228l-43 -178h4q180 246 377 358q76 47 135 48q117 0 47 -293l-100 -424q-16 -74 4 -74q39 0 133 94l31 -49q-86 -94 -166 -146.5t-123 -52.5q-84 0 -31 213l107 455 q35 145 -15 145q-66 0 -208 -144t-222 -282q-59 -244 -80 -346q-88 -16 -147 -39zM416 1083q35 90 79 131t85 41q35 0 118 -34q74 -35 107 -35q43 0 94 84l49 -27q-70 -174 -166 -174q-31 0 -137 49q-53 25 -86 25q-49 0 -98 -90z" />
<glyph unicode="&#xf2;" horiz-adv-x="962" d="M94 293q0 190 88 339.5t224 219.5q121 68 223 68q127 0 198.5 -84t71.5 -236q0 -137 -57.5 -273.5t-161.5 -222.5q-154 -129 -315 -129q-137 0 -204 91.5t-67 226.5zM266 305q0 -115 46 -181.5t126 -66.5q33 0 68 13q86 37 154.5 187.5t66.5 338.5q0 119 -46 181.5 t-120 62.5q-41 0 -78 -17q-76 -35 -146.5 -171t-70.5 -347zM446 1339l7 19q14 6 70.5 16t78.5 8q12 -59 47 -201l39 -159l-59 -18q-130 245 -183 335z" />
<glyph unicode="&#xf3;" horiz-adv-x="962" d="M94 293q0 190 88 339.5t224 219.5q121 68 223 68q127 0 198.5 -84t71.5 -236q0 -137 -57.5 -273.5t-161.5 -222.5q-154 -129 -315 -129q-137 0 -204 91.5t-67 226.5zM266 305q0 -115 46 -181.5t126 -66.5q33 0 68 13q86 37 154.5 187.5t66.5 338.5q0 119 -46 181.5 t-120 62.5q-41 0 -78 -17q-76 -35 -146.5 -171t-70.5 -347zM502 1038q119 186 188 320q23 6 86.5 14t83.5 4l6 -22l-317 -348z" />
<glyph unicode="&#xf4;" horiz-adv-x="962" d="M94 293q0 190 88 339.5t224 219.5q121 68 223 68q127 0 198.5 -84t71.5 -236q0 -137 -57.5 -273.5t-161.5 -222.5q-154 -129 -315 -129q-137 0 -204 91.5t-67 226.5zM266 305q0 -115 46 -181.5t126 -66.5q33 0 68 13q86 37 154.5 187.5t66.5 338.5q0 119 -46 181.5 t-120 62.5q-41 0 -78 -17q-76 -35 -146.5 -171t-70.5 -347zM377 1034q174 201 266 334h45q51 -158 143 -334l-47 -35q-66 76 -145 197q-121 -121 -221 -197z" />
<glyph unicode="&#xf5;" horiz-adv-x="962" d="M94 293q0 190 88 339.5t224 219.5q121 68 223 68q127 0 198.5 -84t71.5 -236q0 -137 -57.5 -273.5t-161.5 -222.5q-154 -129 -315 -129q-137 0 -204 91.5t-67 226.5zM266 305q0 -115 46 -181.5t126 -66.5q33 0 68 13q86 37 154.5 187.5t66.5 338.5q0 119 -46 181.5 t-120 62.5q-41 0 -78 -17q-76 -35 -146.5 -171t-70.5 -347zM360 1085q35 88 79 129t85 41q37 0 119 -36q74 -35 109 -35q41 0 92 84l49 -23q-68 -174 -164 -174q-20 0 -39.5 5t-53.5 21.5t-46 20.5q-49 23 -86 23q-49 0 -98 -88z" />
<glyph unicode="&#xf6;" horiz-adv-x="962" d="M94 293q0 190 88 339.5t221 219.5q125 68 224 68q129 0 200.5 -84t71.5 -236q0 -137 -57.5 -273.5t-161.5 -222.5q-154 -129 -315 -129q-137 0 -204 91.5t-67 226.5zM266 305q0 -115 46 -181.5t126 -66.5q35 0 66 13q88 37 156.5 187.5t66.5 338.5q0 119 -46 181.5 t-120 62.5q-41 0 -78 -17q-76 -35 -146.5 -171t-70.5 -347zM362 1176q0 43 29 78.5t78 35.5q35 0 55.5 -25.5t20.5 -60.5q0 -47 -30 -79.5t-73 -32.5q-35 0 -57.5 23.5t-22.5 60.5zM723 1176q0 43 28.5 78.5t77.5 35.5q35 0 56.5 -25.5t21.5 -60.5q0 -47 -29.5 -79.5 t-74.5 -32.5q-35 0 -57.5 23.5t-22.5 60.5z" />
<glyph unicode="&#xf7;" horiz-adv-x="1220" d="M135 471v102h993v-102h-993zM530 219q0 41 30 69.5t75 28.5q37 0 67.5 -28.5t30.5 -69.5q0 -39 -31.5 -69.5t-68.5 -30.5q-43 0 -73 29.5t-30 70.5zM535 825q0 41 30.5 71t69.5 30q43 0 72.5 -30t29.5 -71t-29.5 -69.5t-74.5 -28.5q-37 0 -67.5 29.5t-30.5 68.5z" />
<glyph unicode="&#xf8;" horiz-adv-x="966" d="M94 -51l76 104q-76 84 -76 238q0 193 85 338t214 217q135 74 240 74q90 0 143 -37l78 106l51 -41l-78 -104q76 -82 76 -246q0 -131 -58.5 -267t-160.5 -225q-63 -55 -153.5 -93t-172.5 -38q-88 0 -139 37l-78 -106zM254 313q0 -53 18 -123l426 578q-41 72 -133 72 q-41 0 -78 -17q-78 -31 -154.5 -165t-78.5 -345zM303 127q43 -72 123 -72q37 0 76 15q90 35 166.5 185.5t74.5 338.5q0 61 -14 108z" />
<glyph unicode="&#xf9;" horiz-adv-x="1091" d="M117 727q86 86 172 139.5t129 53.5q25 0 35 -16.5t7 -54.5t-20 -108l-112 -491q-31 -135 26 -135q78 0 214.5 146.5t207.5 277.5q41 170 74 327l141 54h23q-100 -397 -162 -713q-12 -82 8 -82q14 0 60.5 32.5t87.5 73.5l26 -47q-72 -86 -161 -147.5t-136 -61.5 q-80 0 -30 218q14 61 38 180h-4q-160 -215 -329 -334q-88 -63 -166 -64q-129 0 -70 261l113 471q16 63 -6 67q-29 0 -144 -98zM500 1341l8 17q12 8 68.5 18t78.5 6q12 -59 47 -201l39 -159l-59 -18q-129 245 -182 337z" />
<glyph unicode="&#xfa;" horiz-adv-x="1091" d="M117 727q86 86 172 139.5t129 53.5q25 0 35 -16.5t7 -54.5t-20 -108l-112 -491q-31 -135 26 -135q78 0 214.5 146.5t207.5 277.5q41 170 74 327l141 54h23q-100 -397 -162 -713q-12 -82 8 -82q14 0 60.5 32.5t87.5 73.5l26 -47q-72 -86 -161 -147.5t-136 -61.5 q-80 0 -30 218q14 61 38 180h-4q-160 -215 -329 -334q-88 -63 -166 -64q-129 0 -70 261l113 471q16 63 -6 67q-29 0 -144 -98zM590 1036q119 186 188 320q18 6 82 14t86 6l6 -24l-315 -348z" />
<glyph unicode="&#xfb;" horiz-adv-x="1091" d="M117 727q86 86 172 139.5t129 53.5q25 0 35 -16.5t7 -54.5t-20 -108l-112 -491q-31 -135 26 -135q78 0 214.5 146.5t207.5 277.5q41 170 74 327l141 54h23q-100 -397 -162 -713q-12 -82 8 -82q14 0 60.5 32.5t87.5 73.5l26 -47q-72 -86 -161 -147.5t-136 -61.5 q-80 0 -30 218q14 61 38 180h-4q-160 -215 -329 -334q-88 -63 -166 -64q-129 0 -70 261l113 471q16 63 -6 67q-29 0 -144 -98zM438 1036q172 199 267 332h45q51 -158 143 -334l-47 -35q-53 61 -146 197q-129 -125 -221 -197z" />
<glyph unicode="&#xfc;" horiz-adv-x="1091" d="M117 727q86 86 173 139.5t130 53.5q35 0 40 -38t-18 -141l-114 -491q-31 -135 26 -135q78 0 214.5 146.5t207.5 277.5q41 170 74 327l141 54h23q-100 -397 -162 -713q-12 -82 8 -82q12 0 59.5 32.5t88.5 73.5l26 -47q-74 -86 -162 -147.5t-135 -61.5q-80 0 -30 218 q14 61 38 180h-4q-160 -215 -329 -334q-86 -63 -166 -64q-129 0 -70 261l113 471q16 63 -6 67q-29 0 -144 -98zM428 1178q0 41 28.5 76.5t78.5 35.5q35 0 55 -24.5t20 -61.5q0 -45 -28.5 -77.5t-71.5 -32.5q-35 0 -58.5 23.5t-23.5 60.5zM788 1178q0 41 28 76.5t77 35.5 q35 0 55.5 -24.5t20.5 -61.5q0 -45 -29 -77.5t-72 -32.5q-35 0 -57.5 23.5t-22.5 60.5z" />
<glyph unicode="&#xfd;" horiz-adv-x="905" d="M-125 -481q274 178 481 458q-4 272 -63 668q-14 127 -43 127q-12 0 -47 -33.5t-72 -85.5l-35 47q57 88 124 154t118 66q80 0 106 -242q23 -195 45 -524h5q199 305 247 438q29 76 29 125q-2 43 -25 96q-10 25 5 49q10 25 34.5 41.5t51.5 16.5q35 0 57 -31t25 -82 q0 -88 -74 -217q-154 -279 -371 -580q-219 -315 -369 -481l-213 -55zM520 1036q119 186 189 320q18 6 82.5 14t87.5 6l6 -24l-318 -348z" />
<glyph unicode="&#xfe;" horiz-adv-x="1011" d="M-150 -518l7 55q96 18 125.5 48t52.5 139l303 1474q16 96 1 116.5t-97 20.5h-47l4 54q70 8 141.5 25.5t117.5 31.5t56 14q31 4 18 -55l-167 -795h4q129 158 248.5 234t197.5 76q61 0 103.5 -61.5t42.5 -172.5q0 -176 -85 -341t-219 -259q-78 -55 -162.5 -83t-117.5 -28 q-78 0 -135 37l-56 -291q-18 -94 0.5 -121.5t102.5 -35.5l49 -6l-6 -52zM270 135q20 -25 65.5 -47t96.5 -22q80 0 137 40q74 49 148 208t74 337q0 150 -72 150q-59 0 -168 -87t-205 -233q-39 -164 -76 -346z" />
<glyph unicode="&#xff;" horiz-adv-x="905" d="M-125 -481q276 184 481 458q-4 279 -63 668q-14 127 -43 127q-12 0 -47 -33.5t-72 -85.5l-35 45q57 88 124 155t118 67q80 0 106 -242q23 -195 45 -524h5q199 305 247 438q29 76 29 125q-2 43 -25 96q-10 25 5 49q10 25 34.5 41.5t51.5 16.5q35 0 57 -31t25 -82 q0 -88 -74 -217q-154 -279 -371 -580q-219 -315 -369 -481l-213 -55zM342 1176q0 43 28.5 78.5t78.5 35.5q35 0 55 -25.5t20 -60.5q0 -47 -29.5 -79.5t-72.5 -32.5q-35 0 -57.5 23.5t-22.5 60.5zM700 1176q0 43 29 78.5t78 35.5q35 0 55.5 -25.5t20.5 -60.5q0 -47 -30 -79.5 t-73 -32.5q-35 0 -57.5 23.5t-22.5 60.5z" />
<glyph unicode="&#x152;" horiz-adv-x="1939" d="M141 561q0 252 122 435.5t316.5 270.5t432.5 85q88 0 206.5 -11.5t167.5 -11.5h558q-2 -8 -37 -307l-60 -4q0 123 -26 176q-18 39 -59.5 52.5t-151.5 13.5h-152q-51 0 -63.5 -10.5t-22.5 -67.5l-86 -451h193q127 0 164.5 24.5t74.5 127.5h58l-76 -387h-60 q2 113 -24.5 137t-155.5 24h-188l-70 -366q-31 -162 10 -193q37 -29 205 -28q115 0 171.5 14t99.5 55q72 70 141 197l55 -21q-125 -309 -129 -315h-620q-70 0 -185 -12q-96 -10 -170 -11q-145 0 -259.5 38t-184.5 97.5t-115 138.5t-62.5 154.5t-17.5 155.5zM338 563 q0 -86 20.5 -168t68.5 -166t146.5 -134t233.5 -48q82 4 133 27q57 25 78 131l180 934q8 57 1 78.5t-36 33.5q-66 31 -184 31q-270 0 -455.5 -187.5t-185.5 -531.5z" />
<glyph unicode="&#x153;" horiz-adv-x="1409" d="M94 297q0 188 84 334.5t211 218.5q129 70 227 70q84 0 144.5 -48.5t85.5 -138.5h2q70 76 175 131.5t187 55.5q80 0 128 -46.5t48 -117.5q0 -70 -53 -132.5t-142 -107.5t-174 -75.5t-177 -53.5q-4 -29 -4 -57q0 -233 159 -234q141 0 310 166l32 -47q-217 -240 -430 -240 q-166 0 -207 185h-2q-59 -80 -158.5 -132.5t-187.5 -52.5q-131 0 -194.5 95.5t-63.5 226.5zM266 317q0 -115 40 -186.5t120 -71.5q37 0 68 17q80 35 151.5 185.5t71.5 340.5q0 240 -162 240h-2q-33 0 -74 -17q-76 -31 -144.5 -162t-68.5 -346zM848 455q377 98 381 272 q2 49 -24.5 76.5t-69.5 27.5h-2q-57 0 -101 -28q-53 -31 -107 -114.5t-77 -233.5z" />
<glyph unicode="&#x178;" horiz-adv-x="1251" d="M195 1274l14 55h473l-12 -55l-72 -10q-53 -6 -62.5 -22.5t7.5 -61.5q111 -309 186 -494q244 336 330 481q31 53 20.5 71.5t-67.5 27.5l-64 8l15 55h442l-14 -55q-100 -10 -141.5 -35t-116.5 -119q-119 -152 -336 -463q-37 -45 -52 -114l-57 -289q-25 -129 1 -157.5 t165 -41.5l-14 -55h-547l14 55q127 10 158 39t57 160l56 276q10 57 -11 121l-182 479q-35 90 -63.5 112t-126.5 32zM553 1503q0 43 27.5 79t76.5 36q37 0 57.5 -25.5t20.5 -62.5q0 -45 -29.5 -78t-72.5 -33q-35 0 -57.5 23.5t-22.5 60.5zM934 1503q0 43 27.5 79t76.5 36 q37 0 57.5 -25.5t20.5 -62.5q0 -45 -29.5 -78t-72.5 -33q-35 0 -57.5 22.5t-22.5 61.5z" />
<glyph unicode="&#x2c6;" horiz-adv-x="819" d="M309 1034q174 201 266 334h46q51 -158 143 -334l-47 -35q-66 76 -146 197q-121 -121 -221 -197z" />
<glyph unicode="&#x2dc;" horiz-adv-x="819" d="M274 1085q68 172 164 172q39 0 119 -36q74 -35 109 -35q41 0 94 84l47 -25q-68 -174 -164 -174q-20 0 -39.5 5t-53.5 21.5t-46 20.5q-49 25 -86 25q-51 0 -96 -88z" />
<glyph unicode="&#x2000;" horiz-adv-x="876" />
<glyph unicode="&#x2001;" horiz-adv-x="1753" />
<glyph unicode="&#x2002;" horiz-adv-x="876" />
<glyph unicode="&#x2003;" horiz-adv-x="1753" />
<glyph unicode="&#x2004;" horiz-adv-x="583" />
<glyph unicode="&#x2005;" horiz-adv-x="438" />
<glyph unicode="&#x2006;" horiz-adv-x="290" />
<glyph unicode="&#x2007;" horiz-adv-x="290" />
<glyph unicode="&#x2008;" horiz-adv-x="219" />
<glyph unicode="&#x2009;" horiz-adv-x="350" />
<glyph unicode="&#x200a;" horiz-adv-x="96" />
<glyph unicode="&#x2010;" horiz-adv-x="684" d="M102 406l37 112h471l-37 -112h-471z" />
<glyph unicode="&#x2011;" horiz-adv-x="684" d="M102 406l37 112h471l-37 -112h-471z" />
<glyph unicode="&#x2013;" horiz-adv-x="1024" d="M109 410l24 106h817l-24 -106h-817z" />
<glyph unicode="&#x2014;" horiz-adv-x="1857" d="M111 410l28 106h1647l-29 -106h-1646z" />
<glyph unicode="&#x2018;" horiz-adv-x="444" d="M236 1186q4 109 89 178.5t195 99.5l23 -57q-174 -68 -181 -182q-6 -86 103 -115q23 -4 20 -35q-2 -37 -29.5 -59.5t-60.5 -22.5q-59 0 -110 53.5t-49 139.5z" />
<glyph unicode="&#x2019;" horiz-adv-x="438" d="M213 1040q174 66 180 181q6 88 -100 116q-25 4 -23 35q2 37 30 59.5t60 22.5q59 0 109.5 -54t48.5 -140q-4 -109 -87 -176.5t-198 -100.5z" />
<glyph unicode="&#x201a;" horiz-adv-x="466" d="M-4 -168q172 70 178 184q6 88 -98 117q-25 8 -23 37q2 37 31 59.5t61 22.5q59 0 110.5 -54.5t49.5 -142.5q-4 -111 -89 -179.5t-198 -98.5z" />
<glyph unicode="&#x201c;" horiz-adv-x="790" d="M236 1186q4 109 89 178.5t197 99.5l23 -55q-174 -70 -180 -184q-6 -88 100 -115q25 -4 20 -35q-2 -37 -29.5 -59.5t-60.5 -22.5q-59 0 -110 53.5t-49 139.5zM582 1184q4 111 89 180.5t197 99.5l21 -55q-174 -72 -180 -186q-6 -86 98 -115q29 -4 24 -35 q-2 -37 -29.5 -59.5t-60.5 -22.5q-61 0 -112 53.5t-47 139.5z" />
<glyph unicode="&#x201d;" horiz-adv-x="786" d="M213 1038q174 70 180 183q6 88 -100 116q-25 4 -23 35q2 37 30 59.5t60 22.5q59 0 109.5 -54t48.5 -140q-4 -109 -89 -177.5t-196 -99.5zM559 1038q176 72 182 183q6 88 -102 116q-23 4 -23 35q2 37 30 59.5t61 22.5q59 0 111 -54t48 -140q-4 -109 -89 -177.5t-197 -99.5 z" />
<glyph unicode="&#x201e;" horiz-adv-x="819" d="M-4 -168q172 68 178 184q6 88 -98 117q-25 8 -23 37q2 37 30 59.5t60 22.5q61 0 112.5 -54.5t49.5 -142.5q-4 -109 -89 -178.5t-198 -99.5zM350 -168q172 70 178 184q6 88 -98 117q-25 6 -24 37q2 37 30.5 59.5t61.5 22.5q59 0 111.5 -54.5t47.5 -142.5 q-4 -111 -89 -179.5t-197 -98.5z" />
<glyph unicode="&#x2022;" horiz-adv-x="772" d="M150 449q0 111 74.5 189.5t183.5 78.5h4q102 0 177 -79t75 -189q0 -113 -75 -191t-181 -78q-109 0 -183.5 78t-74.5 191z" />
<glyph unicode="&#x2026;" horiz-adv-x="1843" d="M137 84q0 57 34 93t87 36q45 0 73.5 -31.5t28.5 -79.5q0 -59 -35.5 -93t-86.5 -34q-45 0 -73 31t-28 78zM754 84q0 57 33.5 93t86.5 36q45 0 74 -31.5t29 -79.5q0 -59 -36 -93t-87 -34q-43 0 -71.5 31t-28.5 78zM1362 84q0 57 34 93t87 36q45 0 73.5 -31.5t28.5 -79.5 q0 -59 -36 -93t-87 -34q-45 0 -72.5 31t-27.5 78z" />
<glyph unicode="&#x202f;" horiz-adv-x="350" />
<glyph unicode="&#x2039;" horiz-adv-x="579" d="M113 453q123 113 350 372l43 -32l-221 -340l151 -344l-49 -29q-176 256 -274 373z" />
<glyph unicode="&#x203a;" horiz-adv-x="579" d="M123 113l223 340l-153 342l49 30q201 -289 274 -372q-139 -131 -350 -373z" />
<glyph unicode="&#x205f;" horiz-adv-x="438" />
<glyph unicode="&#x20ac;" d="M16 524l37 72h107q6 70 24 127h-98l37 72h82q80 238 241.5 371.5t362.5 133.5q31 0 55.5 -3t48 -9t37 -11t39 -16.5t35.5 -15.5q-18 -229 -23 -256l-57 -6q-6 127 -40 189.5t-120 62.5q-119 0 -229.5 -121t-169.5 -319h520l-37 -72h-501q-20 -57 -25 -127h479l-39 -72 h-444q-16 -481 215 -481q78 0 140.5 54.5t154.5 174.5l43 -32q-20 -47 -65.5 -122t-71.5 -104q-121 -39 -215 -39q-199 0 -294 146.5t-89 402.5h-140z" />
<glyph unicode="&#x2122;" horiz-adv-x="944" d="M180 1204q0 20 3 61.5t3 55.5l25 -2q4 -6 10 -10q4 -2 17 -2h219q14 0 26 14h23q0 -8 2 -48t4 -67h-31q-14 45 -24 51q-8 14 -49 15h-31v-199q0 -41 8 -50t47 -11v-33h-176v33q39 2 46 11t7 50v199h-26q-39 0 -52 -17q-12 -8 -22 -51h-29zM535 979v33q39 0 45 26 q10 29 14 88l6 80q2 43 -5 52.5t-46 13.5v35h131l102 -207l103 207h129v-35q-33 -4 -40 -12.5t-7 -42.5l2 -140q0 -45 7 -54t40 -11v-33h-162v33q35 2 41 10t6 47l2 184h-4l-121 -268h-26l-109 252h-4l-6 -117q-2 -20 -2 -80q2 -27 49 -28v-33h-145z" />
</font>
</defs>
</svg>
